<mxfile host="app.diagrams.net" modified="2024-01-04T21:30:28.972Z" agent="Mozilla/5.0 (Macintosh; Intel Mac OS X 10_15_7) AppleWebKit/537.36 (KHTML, like Gecko) Chrome/120.0.0.0 Safari/537.36" etag="4l5SRFfaYwczLfpZWZbs" version="22.1.16" type="device">
  <diagram name="Sayfa -1" id="iWEBHqOAdmwClGCJoUCb">
    <mxGraphModel dx="2797" dy="1922" grid="1" gridSize="10" guides="1" tooltips="1" connect="1" arrows="1" fold="1" page="1" pageScale="1" pageWidth="827" pageHeight="1169" math="0" shadow="0">
      <root>
        <mxCell id="0" />
        <mxCell id="1" parent="0" />
        <mxCell id="yf1KIowhAy0mrgekBq7h-16" value="ucak" style="rounded=0;whiteSpace=wrap;html=1;" parent="1" vertex="1">
          <mxGeometry x="260" y="-540" width="120" height="60" as="geometry" />
        </mxCell>
        <mxCell id="yf1KIowhAy0mrgekBq7h-17" value="" style="endArrow=none;html=1;rounded=0;" parent="1" source="yf1KIowhAy0mrgekBq7h-18" target="yf1KIowhAy0mrgekBq7h-16" edge="1">
          <mxGeometry width="50" height="50" relative="1" as="geometry">
            <mxPoint x="260" y="-460" as="sourcePoint" />
            <mxPoint x="250" y="-500" as="targetPoint" />
          </mxGeometry>
        </mxCell>
        <mxCell id="yf1KIowhAy0mrgekBq7h-18" value="ucak_id" style="ellipse;whiteSpace=wrap;html=1;aspect=fixed;fillColor=#f8cecc;strokeColor=#b85450;" parent="1" vertex="1">
          <mxGeometry x="370" y="-695" width="60" height="60" as="geometry" />
        </mxCell>
        <mxCell id="yf1KIowhAy0mrgekBq7h-90" value="seferler" style="rounded=0;whiteSpace=wrap;html=1;" parent="1" vertex="1">
          <mxGeometry x="260" y="-340" width="120" height="60" as="geometry" />
        </mxCell>
        <mxCell id="yf1KIowhAy0mrgekBq7h-92" value="" style="endArrow=none;html=1;rounded=0;" parent="1" source="yf1KIowhAy0mrgekBq7h-90" target="yf1KIowhAy0mrgekBq7h-94" edge="1">
          <mxGeometry width="50" height="50" relative="1" as="geometry">
            <mxPoint x="430" y="-370" as="sourcePoint" />
            <mxPoint x="410.21243218208997" y="-341.5574921303246" as="targetPoint" />
          </mxGeometry>
        </mxCell>
        <mxCell id="yf1KIowhAy0mrgekBq7h-93" value="" style="endArrow=none;html=1;rounded=0;" parent="1" source="yf1KIowhAy0mrgekBq7h-90" target="yf1KIowhAy0mrgekBq7h-96" edge="1">
          <mxGeometry width="50" height="50" relative="1" as="geometry">
            <mxPoint x="310" y="-340" as="sourcePoint" />
            <mxPoint x="310" y="-360" as="targetPoint" />
          </mxGeometry>
        </mxCell>
        <mxCell id="yf1KIowhAy0mrgekBq7h-94" value="kalkis_yeri" style="ellipse;whiteSpace=wrap;html=1;aspect=fixed;" parent="1" vertex="1">
          <mxGeometry x="440" y="-410" width="60" height="60" as="geometry" />
        </mxCell>
        <mxCell id="yf1KIowhAy0mrgekBq7h-96" value="sefer_id" style="ellipse;whiteSpace=wrap;html=1;aspect=fixed;fillColor=#f8cecc;strokeColor=#b85450;" parent="1" vertex="1">
          <mxGeometry x="164.5" y="-380" width="60" height="60" as="geometry" />
        </mxCell>
        <mxCell id="yf1KIowhAy0mrgekBq7h-97" value="" style="endArrow=none;html=1;rounded=0;" parent="1" source="yf1KIowhAy0mrgekBq7h-90" target="yf1KIowhAy0mrgekBq7h-98" edge="1">
          <mxGeometry width="50" height="50" relative="1" as="geometry">
            <mxPoint x="300" y="-240" as="sourcePoint" />
            <mxPoint x="320" y="-240" as="targetPoint" />
          </mxGeometry>
        </mxCell>
        <mxCell id="yf1KIowhAy0mrgekBq7h-98" value="varis_yeri" style="ellipse;whiteSpace=wrap;html=1;aspect=fixed;" parent="1" vertex="1">
          <mxGeometry x="200" y="-450" width="60" height="60" as="geometry" />
        </mxCell>
        <mxCell id="yf1KIowhAy0mrgekBq7h-99" value="" style="endArrow=none;html=1;rounded=0;" parent="1" source="yf1KIowhAy0mrgekBq7h-90" target="yf1KIowhAy0mrgekBq7h-100" edge="1">
          <mxGeometry width="50" height="50" relative="1" as="geometry">
            <mxPoint x="282.7142857142858" y="-259.9999999999999" as="sourcePoint" />
            <mxPoint x="420" y="-270" as="targetPoint" />
          </mxGeometry>
        </mxCell>
        <mxCell id="yf1KIowhAy0mrgekBq7h-100" value="&lt;font style=&quot;font-size: 10px;&quot;&gt;kalkis_tarih_&lt;br&gt;saat&lt;/font&gt;" style="ellipse;whiteSpace=wrap;html=1;aspect=fixed;" parent="1" vertex="1">
          <mxGeometry x="384" y="-244" width="60" height="60" as="geometry" />
        </mxCell>
        <mxCell id="yf1KIowhAy0mrgekBq7h-105" value="" style="endArrow=none;html=1;rounded=0;" parent="1" source="yf1KIowhAy0mrgekBq7h-90" target="yf1KIowhAy0mrgekBq7h-106" edge="1">
          <mxGeometry width="50" height="50" relative="1" as="geometry">
            <mxPoint x="290" y="-366" as="sourcePoint" />
            <mxPoint x="180" y="-390" as="targetPoint" />
          </mxGeometry>
        </mxCell>
        <mxCell id="yf1KIowhAy0mrgekBq7h-106" value="&lt;font style=&quot;font-size: 11px;&quot;&gt;varis_tarih_&lt;br&gt;saat&lt;/font&gt;" style="ellipse;whiteSpace=wrap;html=1;aspect=fixed;" parent="1" vertex="1">
          <mxGeometry x="134" y="-280" width="60" height="60" as="geometry" />
        </mxCell>
        <mxCell id="yf1KIowhAy0mrgekBq7h-107" value="" style="endArrow=none;html=1;rounded=0;entryX=0.25;entryY=1;entryDx=0;entryDy=0;" parent="1" source="yf1KIowhAy0mrgekBq7h-108" target="yf1KIowhAy0mrgekBq7h-90" edge="1">
          <mxGeometry width="50" height="50" relative="1" as="geometry">
            <mxPoint x="290" y="-240" as="sourcePoint" />
            <mxPoint x="510" y="-410" as="targetPoint" />
          </mxGeometry>
        </mxCell>
        <mxCell id="yf1KIowhAy0mrgekBq7h-108" value="ucak_id" style="ellipse;whiteSpace=wrap;html=1;aspect=fixed;fillColor=#d5e8d4;strokeColor=#82b366;" parent="1" vertex="1">
          <mxGeometry x="230" y="-240" width="60" height="60" as="geometry" />
        </mxCell>
        <mxCell id="yf1KIowhAy0mrgekBq7h-149" value="personeller" style="rounded=0;whiteSpace=wrap;html=1;" parent="1" vertex="1">
          <mxGeometry x="129" y="-6" width="120" height="60" as="geometry" />
        </mxCell>
        <mxCell id="yf1KIowhAy0mrgekBq7h-150" value="" style="endArrow=none;html=1;rounded=0;" parent="1" source="yf1KIowhAy0mrgekBq7h-149" target="yf1KIowhAy0mrgekBq7h-152" edge="1">
          <mxGeometry width="50" height="50" relative="1" as="geometry">
            <mxPoint x="294.5" y="-31" as="sourcePoint" />
            <mxPoint x="234.5" y="-21" as="targetPoint" />
          </mxGeometry>
        </mxCell>
        <mxCell id="yf1KIowhAy0mrgekBq7h-151" value="" style="endArrow=none;html=1;rounded=0;fillColor=#d5e8d4;strokeColor=#82b366;" parent="1" source="yf1KIowhAy0mrgekBq7h-149" target="yf1KIowhAy0mrgekBq7h-153" edge="1">
          <mxGeometry width="50" height="50" relative="1" as="geometry">
            <mxPoint x="174.5" y="-1" as="sourcePoint" />
            <mxPoint x="174.5" y="-21" as="targetPoint" />
          </mxGeometry>
        </mxCell>
        <mxCell id="yf1KIowhAy0mrgekBq7h-152" value="ad" style="ellipse;whiteSpace=wrap;html=1;aspect=fixed;fontSize=10;" parent="1" vertex="1">
          <mxGeometry x="223" y="-108.5" width="60" height="60" as="geometry" />
        </mxCell>
        <mxCell id="yf1KIowhAy0mrgekBq7h-153" value="personel_id" style="ellipse;whiteSpace=wrap;html=1;aspect=fixed;fillColor=#f8cecc;strokeColor=#b85450;" parent="1" vertex="1">
          <mxGeometry x="39" y="-56" width="60" height="60" as="geometry" />
        </mxCell>
        <mxCell id="yf1KIowhAy0mrgekBq7h-154" value="" style="endArrow=none;html=1;rounded=0;" parent="1" source="yf1KIowhAy0mrgekBq7h-149" target="yf1KIowhAy0mrgekBq7h-155" edge="1">
          <mxGeometry width="50" height="50" relative="1" as="geometry">
            <mxPoint x="147.21428571428578" y="79.00000000000011" as="sourcePoint" />
            <mxPoint x="111.5" y="119" as="targetPoint" />
          </mxGeometry>
        </mxCell>
        <mxCell id="yf1KIowhAy0mrgekBq7h-155" value="&lt;span style=&quot;font-size: 10px;&quot;&gt;dogum_tarihi&lt;/span&gt;" style="ellipse;whiteSpace=wrap;html=1;aspect=fixed;" parent="1" vertex="1">
          <mxGeometry x="289" y="66.5" width="60" height="60" as="geometry" />
        </mxCell>
        <mxCell id="yf1KIowhAy0mrgekBq7h-156" value="" style="endArrow=none;html=1;rounded=0;" parent="1" source="yf1KIowhAy0mrgekBq7h-149" target="yf1KIowhAy0mrgekBq7h-157" edge="1">
          <mxGeometry width="50" height="50" relative="1" as="geometry">
            <mxPoint x="34.5" y="-1" as="sourcePoint" />
            <mxPoint x="11.5" y="39" as="targetPoint" />
          </mxGeometry>
        </mxCell>
        <mxCell id="yf1KIowhAy0mrgekBq7h-157" value="&lt;font style=&quot;font-size: 10px;&quot;&gt;soyad&lt;/font&gt;" style="ellipse;whiteSpace=wrap;html=1;aspect=fixed;" parent="1" vertex="1">
          <mxGeometry x="309" y="-140" width="60" height="60" as="geometry" />
        </mxCell>
        <mxCell id="yf1KIowhAy0mrgekBq7h-158" value="&lt;font style=&quot;font-size: 8px;&quot;&gt;personel_tur_id&lt;/font&gt;" style="ellipse;whiteSpace=wrap;html=1;aspect=fixed;fillColor=#d5e8d4;strokeColor=#82b366;" parent="1" vertex="1">
          <mxGeometry x="119" y="-88.5" width="60" height="60" as="geometry" />
        </mxCell>
        <mxCell id="yf1KIowhAy0mrgekBq7h-159" value="" style="endArrow=none;html=1;rounded=0;exitX=0.25;exitY=0;exitDx=0;exitDy=0;" parent="1" source="yf1KIowhAy0mrgekBq7h-149" target="yf1KIowhAy0mrgekBq7h-158" edge="1">
          <mxGeometry width="50" height="50" relative="1" as="geometry">
            <mxPoint x="89" y="4" as="sourcePoint" />
            <mxPoint x="139" y="-46" as="targetPoint" />
          </mxGeometry>
        </mxCell>
        <mxCell id="yf1KIowhAy0mrgekBq7h-160" value="" style="endArrow=none;html=1;rounded=0;" parent="1" source="yf1KIowhAy0mrgekBq7h-149" target="yf1KIowhAy0mrgekBq7h-161" edge="1">
          <mxGeometry width="50" height="50" relative="1" as="geometry">
            <mxPoint x="175" y="112" as="sourcePoint" />
            <mxPoint x="275.35625078726457" y="86.89194269529116" as="targetPoint" />
          </mxGeometry>
        </mxCell>
        <mxCell id="yf1KIowhAy0mrgekBq7h-161" value="&lt;span style=&quot;font-size: 10px;&quot;&gt;cinsiyet&lt;br&gt;&lt;/span&gt;" style="ellipse;whiteSpace=wrap;html=1;aspect=fixed;" parent="1" vertex="1">
          <mxGeometry x="63" y="66.5" width="60" height="60" as="geometry" />
        </mxCell>
        <mxCell id="yf1KIowhAy0mrgekBq7h-163" value="koltuk" style="rounded=0;whiteSpace=wrap;html=1;" parent="1" vertex="1">
          <mxGeometry x="-110" y="-537.5" width="120" height="60" as="geometry" />
        </mxCell>
        <mxCell id="yf1KIowhAy0mrgekBq7h-172" value="&lt;font style=&quot;font-size: 11px;&quot;&gt;koltuk_no&lt;/font&gt;" style="ellipse;whiteSpace=wrap;html=1;aspect=fixed;fillColor=#f8cecc;strokeColor=#b85450;" parent="1" vertex="1">
          <mxGeometry x="-140" y="-620" width="60" height="60" as="geometry" />
        </mxCell>
        <mxCell id="yf1KIowhAy0mrgekBq7h-173" value="" style="endArrow=none;html=1;rounded=0;entryX=0.585;entryY=0.998;entryDx=0;entryDy=0;entryPerimeter=0;exitX=0.25;exitY=0;exitDx=0;exitDy=0;" parent="1" source="yf1KIowhAy0mrgekBq7h-163" target="yf1KIowhAy0mrgekBq7h-172" edge="1">
          <mxGeometry width="50" height="50" relative="1" as="geometry">
            <mxPoint x="-145.5" y="-527.5" as="sourcePoint" />
            <mxPoint x="-95.5" y="-577.5" as="targetPoint" />
          </mxGeometry>
        </mxCell>
        <mxCell id="yf1KIowhAy0mrgekBq7h-174" value="" style="endArrow=none;html=1;rounded=0;" parent="1" source="yf1KIowhAy0mrgekBq7h-163" target="yf1KIowhAy0mrgekBq7h-175" edge="1">
          <mxGeometry width="50" height="50" relative="1" as="geometry">
            <mxPoint x="-59.5" y="-419.5" as="sourcePoint" />
            <mxPoint x="-193" y="-332.5" as="targetPoint" />
          </mxGeometry>
        </mxCell>
        <mxCell id="yf1KIowhAy0mrgekBq7h-175" value="&lt;span style=&quot;font-size: 10px;&quot;&gt;koltuk_sinifi&lt;/span&gt;" style="ellipse;whiteSpace=wrap;html=1;aspect=fixed;" parent="1" vertex="1">
          <mxGeometry x="-10" y="-630" width="60" height="60" as="geometry" />
        </mxCell>
        <mxCell id="yf1KIowhAy0mrgekBq7h-178" value="" style="endArrow=none;html=1;rounded=0;" parent="1" source="yf1KIowhAy0mrgekBq7h-256" edge="1">
          <mxGeometry width="50" height="50" relative="1" as="geometry">
            <mxPoint x="170" y="-515.5" as="sourcePoint" />
            <mxPoint x="10" y="-510" as="targetPoint" />
          </mxGeometry>
        </mxCell>
        <mxCell id="yf1KIowhAy0mrgekBq7h-179" value="" style="endArrow=none;html=1;rounded=0;" parent="1" edge="1">
          <mxGeometry width="50" height="50" relative="1" as="geometry">
            <mxPoint x="20" y="-520" as="sourcePoint" />
            <mxPoint x="20" y="-500" as="targetPoint" />
          </mxGeometry>
        </mxCell>
        <mxCell id="yf1KIowhAy0mrgekBq7h-180" value="" style="endArrow=none;html=1;rounded=0;" parent="1" edge="1">
          <mxGeometry width="50" height="50" relative="1" as="geometry">
            <mxPoint x="240" y="-520" as="sourcePoint" />
            <mxPoint x="240" y="-500" as="targetPoint" />
          </mxGeometry>
        </mxCell>
        <mxCell id="yf1KIowhAy0mrgekBq7h-181" value="" style="endArrow=none;html=1;rounded=0;" parent="1" edge="1">
          <mxGeometry width="50" height="50" relative="1" as="geometry">
            <mxPoint x="250" y="-520" as="sourcePoint" />
            <mxPoint x="250" y="-500" as="targetPoint" />
          </mxGeometry>
        </mxCell>
        <mxCell id="yf1KIowhAy0mrgekBq7h-182" value="" style="endArrow=none;html=1;rounded=0;" parent="1" source="yf1KIowhAy0mrgekBq7h-254" target="yf1KIowhAy0mrgekBq7h-90" edge="1">
          <mxGeometry width="50" height="50" relative="1" as="geometry">
            <mxPoint x="319.52" y="-480" as="sourcePoint" />
            <mxPoint x="320" y="-350" as="targetPoint" />
          </mxGeometry>
        </mxCell>
        <mxCell id="yf1KIowhAy0mrgekBq7h-183" value="" style="endArrow=none;html=1;rounded=0;" parent="1" edge="1">
          <mxGeometry width="50" height="50" relative="1" as="geometry">
            <mxPoint x="310" y="-350" as="sourcePoint" />
            <mxPoint x="330" y="-350" as="targetPoint" />
          </mxGeometry>
        </mxCell>
        <mxCell id="yf1KIowhAy0mrgekBq7h-184" value="" style="endArrow=none;html=1;rounded=0;" parent="1" edge="1">
          <mxGeometry width="50" height="50" relative="1" as="geometry">
            <mxPoint x="310" y="-360" as="sourcePoint" />
            <mxPoint x="330" y="-360" as="targetPoint" />
          </mxGeometry>
        </mxCell>
        <mxCell id="yf1KIowhAy0mrgekBq7h-185" value="" style="endArrow=none;html=1;rounded=0;" parent="1" edge="1">
          <mxGeometry width="50" height="50" relative="1" as="geometry">
            <mxPoint x="310" y="-470" as="sourcePoint" />
            <mxPoint x="330" y="-470" as="targetPoint" />
          </mxGeometry>
        </mxCell>
        <mxCell id="yf1KIowhAy0mrgekBq7h-188" value="" style="endArrow=none;html=1;rounded=0;" parent="1" edge="1">
          <mxGeometry width="50" height="50" relative="1" as="geometry">
            <mxPoint x="259" y="34" as="sourcePoint" />
            <mxPoint x="259" y="14" as="targetPoint" />
          </mxGeometry>
        </mxCell>
        <mxCell id="yf1KIowhAy0mrgekBq7h-195" value="satin_alim" style="rounded=0;whiteSpace=wrap;html=1;" parent="1" vertex="1">
          <mxGeometry x="-114.5" y="-340" width="120" height="60" as="geometry" />
        </mxCell>
        <mxCell id="yf1KIowhAy0mrgekBq7h-197" value="" style="endArrow=none;html=1;rounded=0;" parent="1" source="yf1KIowhAy0mrgekBq7h-195" target="yf1KIowhAy0mrgekBq7h-199" edge="1">
          <mxGeometry width="50" height="50" relative="1" as="geometry">
            <mxPoint x="-64.5" y="-335" as="sourcePoint" />
            <mxPoint x="-64.5" y="-355" as="targetPoint" />
          </mxGeometry>
        </mxCell>
        <mxCell id="yf1KIowhAy0mrgekBq7h-199" value="&lt;font style=&quot;font-size: 10px;&quot;&gt;satin_alim_id&lt;/font&gt;" style="ellipse;whiteSpace=wrap;html=1;aspect=fixed;fillColor=#f8cecc;strokeColor=#b85450;" parent="1" vertex="1">
          <mxGeometry x="-20" y="-410" width="60" height="60" as="geometry" />
        </mxCell>
        <mxCell id="yf1KIowhAy0mrgekBq7h-202" value="" style="endArrow=none;html=1;rounded=0;" parent="1" source="yf1KIowhAy0mrgekBq7h-195" target="yf1KIowhAy0mrgekBq7h-203" edge="1">
          <mxGeometry width="50" height="50" relative="1" as="geometry">
            <mxPoint x="-204.5" y="-335" as="sourcePoint" />
            <mxPoint x="-227.5" y="-295" as="targetPoint" />
          </mxGeometry>
        </mxCell>
        <mxCell id="yf1KIowhAy0mrgekBq7h-203" value="&lt;font style=&quot;font-size: 10px;&quot;&gt;satilis_tarihi&lt;/font&gt;" style="ellipse;whiteSpace=wrap;html=1;aspect=fixed;" parent="1" vertex="1">
          <mxGeometry x="30" y="-304" width="60" height="60" as="geometry" />
        </mxCell>
        <mxCell id="yf1KIowhAy0mrgekBq7h-204" value="&lt;font style=&quot;font-size: 11px;&quot;&gt;koltuk_no&lt;/font&gt;" style="ellipse;whiteSpace=wrap;html=1;aspect=fixed;fillColor=#d5e8d4;strokeColor=#82b366;" parent="1" vertex="1">
          <mxGeometry x="40" y="-390" width="60" height="60" as="geometry" />
        </mxCell>
        <mxCell id="yf1KIowhAy0mrgekBq7h-205" value="" style="endArrow=none;html=1;rounded=0;" parent="1" source="yf1KIowhAy0mrgekBq7h-195" target="yf1KIowhAy0mrgekBq7h-204" edge="1">
          <mxGeometry width="50" height="50" relative="1" as="geometry">
            <mxPoint x="-150" y="-330" as="sourcePoint" />
            <mxPoint x="-100" y="-380" as="targetPoint" />
          </mxGeometry>
        </mxCell>
        <mxCell id="yf1KIowhAy0mrgekBq7h-208" value="" style="endArrow=none;html=1;rounded=0;" parent="1" source="yf1KIowhAy0mrgekBq7h-252" edge="1">
          <mxGeometry width="50" height="50" relative="1" as="geometry">
            <mxPoint x="-50" y="-480" as="sourcePoint" />
            <mxPoint x="-50" y="-340" as="targetPoint" />
          </mxGeometry>
        </mxCell>
        <mxCell id="yf1KIowhAy0mrgekBq7h-210" value="" style="endArrow=none;html=1;rounded=0;" parent="1" edge="1">
          <mxGeometry width="50" height="50" relative="1" as="geometry">
            <mxPoint x="-60" y="-350" as="sourcePoint" />
            <mxPoint x="-40" y="-350" as="targetPoint" />
          </mxGeometry>
        </mxCell>
        <mxCell id="yf1KIowhAy0mrgekBq7h-211" value="" style="endArrow=none;html=1;rounded=0;" parent="1" edge="1">
          <mxGeometry width="50" height="50" relative="1" as="geometry">
            <mxPoint x="-60" y="-470" as="sourcePoint" />
            <mxPoint x="-40" y="-470" as="targetPoint" />
          </mxGeometry>
        </mxCell>
        <mxCell id="yf1KIowhAy0mrgekBq7h-214" value="" style="endArrow=none;html=1;rounded=0;entryX=0;entryY=0.5;entryDx=0;entryDy=0;exitX=1;exitY=0.5;exitDx=0;exitDy=0;" parent="1" source="yf1KIowhAy0mrgekBq7h-261" target="yf1KIowhAy0mrgekBq7h-90" edge="1">
          <mxGeometry width="50" height="50" relative="1" as="geometry">
            <mxPoint y="-330" as="sourcePoint" />
            <mxPoint x="65" y="-373" as="targetPoint" />
          </mxGeometry>
        </mxCell>
        <mxCell id="yf1KIowhAy0mrgekBq7h-215" value="" style="endArrow=none;html=1;rounded=0;" parent="1" edge="1">
          <mxGeometry width="50" height="50" relative="1" as="geometry">
            <mxPoint x="20" y="-300" as="sourcePoint" />
            <mxPoint x="20" y="-320" as="targetPoint" />
          </mxGeometry>
        </mxCell>
        <mxCell id="yf1KIowhAy0mrgekBq7h-216" value="" style="endArrow=none;html=1;rounded=0;" parent="1" edge="1">
          <mxGeometry width="50" height="50" relative="1" as="geometry">
            <mxPoint x="250" y="-300" as="sourcePoint" />
            <mxPoint x="250" y="-320" as="targetPoint" />
          </mxGeometry>
        </mxCell>
        <mxCell id="yf1KIowhAy0mrgekBq7h-217" value="" style="endArrow=none;html=1;rounded=0;" parent="1" edge="1">
          <mxGeometry width="50" height="50" relative="1" as="geometry">
            <mxPoint x="-60" y="-360" as="sourcePoint" />
            <mxPoint x="-40" y="-360" as="targetPoint" />
          </mxGeometry>
        </mxCell>
        <mxCell id="yf1KIowhAy0mrgekBq7h-220" value="" style="endArrow=none;html=1;rounded=0;exitX=1;exitY=0.5;exitDx=0;exitDy=0;entryX=0;entryY=0.5;entryDx=0;entryDy=0;" parent="1" source="YFkLfKQitdEphh0zkhBd-70" target="YFkLfKQitdEphh0zkhBd-62" edge="1">
          <mxGeometry width="50" height="50" relative="1" as="geometry">
            <mxPoint x="380" y="-310.34" as="sourcePoint" />
            <mxPoint x="800" y="-310.0425" as="targetPoint" />
          </mxGeometry>
        </mxCell>
        <mxCell id="yf1KIowhAy0mrgekBq7h-221" value="" style="endArrow=none;html=1;rounded=0;" parent="1" edge="1">
          <mxGeometry width="50" height="50" relative="1" as="geometry">
            <mxPoint x="390" y="-300" as="sourcePoint" />
            <mxPoint x="390" y="-320" as="targetPoint" />
          </mxGeometry>
        </mxCell>
        <mxCell id="yf1KIowhAy0mrgekBq7h-223" value="" style="endArrow=none;html=1;rounded=0;" parent="1" edge="1">
          <mxGeometry width="50" height="50" relative="1" as="geometry">
            <mxPoint x="400" y="-300" as="sourcePoint" />
            <mxPoint x="400" y="-320" as="targetPoint" />
          </mxGeometry>
        </mxCell>
        <mxCell id="yf1KIowhAy0mrgekBq7h-230" value="" style="endArrow=none;html=1;rounded=0;" parent="1" source="yf1KIowhAy0mrgekBq7h-195" target="yf1KIowhAy0mrgekBq7h-231" edge="1">
          <mxGeometry width="50" height="50" relative="1" as="geometry">
            <mxPoint x="-60" y="-120" as="sourcePoint" />
            <mxPoint x="209.5" y="-210" as="targetPoint" />
          </mxGeometry>
        </mxCell>
        <mxCell id="yf1KIowhAy0mrgekBq7h-231" value="sefer_id" style="ellipse;whiteSpace=wrap;html=1;aspect=fixed;fillColor=#d5e8d4;strokeColor=#82b366;" parent="1" vertex="1">
          <mxGeometry x="-114.5" y="-205" width="60" height="60" as="geometry" />
        </mxCell>
        <mxCell id="yf1KIowhAy0mrgekBq7h-232" value="" style="endArrow=none;html=1;rounded=0;" parent="1" edge="1">
          <mxGeometry width="50" height="50" relative="1" as="geometry">
            <mxPoint x="30" y="-300" as="sourcePoint" />
            <mxPoint x="30" y="-320" as="targetPoint" />
          </mxGeometry>
        </mxCell>
        <mxCell id="yf1KIowhAy0mrgekBq7h-253" value="" style="endArrow=none;html=1;rounded=0;" parent="1" target="yf1KIowhAy0mrgekBq7h-252" edge="1">
          <mxGeometry width="50" height="50" relative="1" as="geometry">
            <mxPoint x="-50" y="-480" as="sourcePoint" />
            <mxPoint x="-50" y="-340" as="targetPoint" />
          </mxGeometry>
        </mxCell>
        <mxCell id="yf1KIowhAy0mrgekBq7h-252" value="olabilir" style="rhombus;whiteSpace=wrap;html=1;" parent="1" vertex="1">
          <mxGeometry x="-90" y="-455" width="80" height="80" as="geometry" />
        </mxCell>
        <mxCell id="yf1KIowhAy0mrgekBq7h-255" value="" style="endArrow=none;html=1;rounded=0;" parent="1" target="yf1KIowhAy0mrgekBq7h-254" edge="1">
          <mxGeometry width="50" height="50" relative="1" as="geometry">
            <mxPoint x="319.52" y="-480" as="sourcePoint" />
            <mxPoint x="320" y="-340" as="targetPoint" />
          </mxGeometry>
        </mxCell>
        <mxCell id="yf1KIowhAy0mrgekBq7h-254" value="olabilir" style="rhombus;whiteSpace=wrap;html=1;" parent="1" vertex="1">
          <mxGeometry x="280" y="-460" width="80" height="80" as="geometry" />
        </mxCell>
        <mxCell id="yf1KIowhAy0mrgekBq7h-257" value="" style="endArrow=none;html=1;rounded=0;" parent="1" source="yf1KIowhAy0mrgekBq7h-16" target="yf1KIowhAy0mrgekBq7h-256" edge="1">
          <mxGeometry width="50" height="50" relative="1" as="geometry">
            <mxPoint x="260" y="-510" as="sourcePoint" />
            <mxPoint x="10" y="-510" as="targetPoint" />
          </mxGeometry>
        </mxCell>
        <mxCell id="yf1KIowhAy0mrgekBq7h-256" value="ucak_koltuk" style="rhombus;whiteSpace=wrap;html=1;fillColor=#dae8fc;strokeColor=#6c8ebf;" parent="1" vertex="1">
          <mxGeometry x="90" y="-550" width="80" height="80" as="geometry" />
        </mxCell>
        <mxCell id="yf1KIowhAy0mrgekBq7h-259" value="" style="endArrow=none;html=1;rounded=0;" parent="1" source="yf1KIowhAy0mrgekBq7h-195" target="yf1KIowhAy0mrgekBq7h-260" edge="1">
          <mxGeometry width="50" height="50" relative="1" as="geometry">
            <mxPoint x="-44" y="-240" as="sourcePoint" />
            <mxPoint x="-177.5" y="-169" as="targetPoint" />
          </mxGeometry>
        </mxCell>
        <mxCell id="yf1KIowhAy0mrgekBq7h-260" value="&lt;font style=&quot;font-size: 10px;&quot;&gt;fiyat&lt;/font&gt;" style="ellipse;whiteSpace=wrap;html=1;aspect=fixed;" parent="1" vertex="1">
          <mxGeometry x="50" y="-244" width="60" height="60" as="geometry" />
        </mxCell>
        <mxCell id="yf1KIowhAy0mrgekBq7h-262" value="" style="endArrow=none;html=1;rounded=0;entryX=0;entryY=0.5;entryDx=0;entryDy=0;exitX=1;exitY=0.5;exitDx=0;exitDy=0;" parent="1" source="yf1KIowhAy0mrgekBq7h-195" target="yf1KIowhAy0mrgekBq7h-261" edge="1">
          <mxGeometry width="50" height="50" relative="1" as="geometry">
            <mxPoint x="6" y="-310" as="sourcePoint" />
            <mxPoint x="260" y="-310" as="targetPoint" />
          </mxGeometry>
        </mxCell>
        <mxCell id="yf1KIowhAy0mrgekBq7h-261" value="olabilir" style="rhombus;whiteSpace=wrap;html=1;" parent="1" vertex="1">
          <mxGeometry x="80" y="-350" width="80" height="80" as="geometry" />
        </mxCell>
        <mxCell id="yf1KIowhAy0mrgekBq7h-263" value="" style="rhombus;whiteSpace=wrap;html=1;fillColor=#dae8fc;strokeColor=#6c8ebf;" parent="1" vertex="1">
          <mxGeometry x="1120.5" y="-840" width="80" height="80" as="geometry" />
        </mxCell>
        <mxCell id="yf1KIowhAy0mrgekBq7h-264" value="Ara Tablo" style="text;html=1;align=center;verticalAlign=middle;resizable=0;points=[];autosize=1;strokeColor=none;fillColor=none;" parent="1" vertex="1">
          <mxGeometry x="1210" y="-815" width="70" height="30" as="geometry" />
        </mxCell>
        <mxCell id="yf1KIowhAy0mrgekBq7h-265" value="" style="ellipse;whiteSpace=wrap;html=1;aspect=fixed;fillColor=#f8cecc;strokeColor=#b85450;" parent="1" vertex="1">
          <mxGeometry x="1130" y="-740" width="60" height="60" as="geometry" />
        </mxCell>
        <mxCell id="yf1KIowhAy0mrgekBq7h-266" value="Birincil Anahtar" style="text;html=1;align=center;verticalAlign=middle;resizable=0;points=[];autosize=1;strokeColor=none;fillColor=none;" parent="1" vertex="1">
          <mxGeometry x="1210" y="-725" width="100" height="30" as="geometry" />
        </mxCell>
        <mxCell id="yf1KIowhAy0mrgekBq7h-267" value="" style="ellipse;whiteSpace=wrap;html=1;aspect=fixed;fillColor=#d5e8d4;strokeColor=#82b366;" parent="1" vertex="1">
          <mxGeometry x="1130.5" y="-650" width="60" height="60" as="geometry" />
        </mxCell>
        <mxCell id="yf1KIowhAy0mrgekBq7h-268" value="İkincil Anahtar" style="text;html=1;align=center;verticalAlign=middle;resizable=0;points=[];autosize=1;strokeColor=none;fillColor=none;" parent="1" vertex="1">
          <mxGeometry x="1210" y="-634" width="100" height="30" as="geometry" />
        </mxCell>
        <mxCell id="yf1KIowhAy0mrgekBq7h-269" value="" style="rounded=0;whiteSpace=wrap;html=1;" parent="1" vertex="1">
          <mxGeometry x="1100" y="-560" width="120" height="60" as="geometry" />
        </mxCell>
        <mxCell id="yf1KIowhAy0mrgekBq7h-270" value="Tablo" style="text;html=1;align=center;verticalAlign=middle;resizable=0;points=[];autosize=1;strokeColor=none;fillColor=none;" parent="1" vertex="1">
          <mxGeometry x="1246" y="-550" width="50" height="30" as="geometry" />
        </mxCell>
        <mxCell id="yf1KIowhAy0mrgekBq7h-271" value="" style="endArrow=none;html=1;rounded=0;" parent="1" edge="1">
          <mxGeometry width="50" height="50" relative="1" as="geometry">
            <mxPoint x="1200.5" y="-460" as="sourcePoint" />
            <mxPoint x="1110.5" y="-460" as="targetPoint" />
          </mxGeometry>
        </mxCell>
        <mxCell id="yf1KIowhAy0mrgekBq7h-272" value="Bağlantı" style="text;html=1;align=center;verticalAlign=middle;resizable=0;points=[];autosize=1;strokeColor=none;fillColor=none;" parent="1" vertex="1">
          <mxGeometry x="1236" y="-474" width="70" height="30" as="geometry" />
        </mxCell>
        <mxCell id="yf1KIowhAy0mrgekBq7h-274" value="&lt;br style=&quot;border-color: var(--border-color); color: rgb(0, 0, 0); font-family: Helvetica; font-size: 12px; font-style: normal; font-variant-ligatures: normal; font-variant-caps: normal; font-weight: 400; letter-spacing: normal; orphans: 2; text-align: left; text-indent: 0px; text-transform: none; widows: 2; word-spacing: 0px; -webkit-text-stroke-width: 0px; background-color: rgb(251, 251, 251); text-decoration-thickness: initial; text-decoration-style: initial; text-decoration-color: initial;&quot;&gt;&lt;span style=&quot;color: rgb(0, 0, 0); font-family: Helvetica; font-size: 12px; font-style: normal; font-variant-ligatures: normal; font-variant-caps: normal; font-weight: 400; letter-spacing: normal; orphans: 2; text-align: left; text-indent: 0px; text-transform: none; widows: 2; word-spacing: 0px; -webkit-text-stroke-width: 0px; background-color: rgb(251, 251, 251); text-decoration-thickness: initial; text-decoration-style: initial; text-decoration-color: initial; float: none; display: inline !important;&quot;&gt;ucak[&lt;/span&gt;&lt;font color=&quot;#ff3333&quot; style=&quot;border-color: var(--border-color); font-family: Helvetica; font-size: 12px; font-style: normal; font-variant-ligatures: normal; font-variant-caps: normal; font-weight: 400; letter-spacing: normal; orphans: 2; text-align: left; text-indent: 0px; text-transform: none; widows: 2; word-spacing: 0px; -webkit-text-stroke-width: 0px; background-color: rgb(251, 251, 251); text-decoration-thickness: initial; text-decoration-style: initial; text-decoration-color: initial;&quot;&gt;ucak_id(int(50))&lt;/font&gt;&lt;span style=&quot;color: rgb(0, 0, 0); font-family: Helvetica; font-size: 12px; font-style: normal; font-variant-ligatures: normal; font-variant-caps: normal; font-weight: 400; letter-spacing: normal; orphans: 2; text-align: left; text-indent: 0px; text-transform: none; widows: 2; word-spacing: 0px; -webkit-text-stroke-width: 0px; background-color: rgb(251, 251, 251); text-decoration-thickness: initial; text-decoration-style: initial; text-decoration-color: initial; float: none; display: inline !important;&quot;&gt;, koltuk_sayisi(int(50) ,&lt;/span&gt;&lt;span style=&quot;font-family: Helvetica; font-size: 12px; font-style: normal; font-variant-ligatures: normal; font-variant-caps: normal; font-weight: 400; letter-spacing: normal; orphans: 2; text-align: left; text-indent: 0px; text-transform: none; widows: 2; word-spacing: 0px; -webkit-text-stroke-width: 0px; background-color: rgb(251, 251, 251); text-decoration-thickness: initial; text-decoration-style: initial; text-decoration-color: initial; float: none; display: inline !important;&quot;&gt;&lt;font color=&quot;#009900&quot;&gt;ucak_model_id(int(50)),sirket_id(int(50))&lt;/font&gt;&lt;/span&gt;&lt;span style=&quot;color: rgb(0, 0, 0); font-family: Helvetica; font-size: 12px; font-style: normal; font-variant-ligatures: normal; font-variant-caps: normal; font-weight: 400; letter-spacing: normal; orphans: 2; text-align: left; text-indent: 0px; text-transform: none; widows: 2; word-spacing: 0px; -webkit-text-stroke-width: 0px; background-color: rgb(251, 251, 251); text-decoration-thickness: initial; text-decoration-style: initial; text-decoration-color: initial; float: none; display: inline !important;&quot;&gt;]&lt;/span&gt;&lt;br style=&quot;border-color: var(--border-color); color: rgb(0, 0, 0); font-family: Helvetica; font-size: 12px; font-style: normal; font-variant-ligatures: normal; font-variant-caps: normal; font-weight: 400; letter-spacing: normal; orphans: 2; text-align: left; text-indent: 0px; text-transform: none; widows: 2; word-spacing: 0px; -webkit-text-stroke-width: 0px; background-color: rgb(251, 251, 251); text-decoration-thickness: initial; text-decoration-style: initial; text-decoration-color: initial;&quot;&gt;&lt;br style=&quot;border-color: var(--border-color); color: rgb(0, 0, 0); font-family: Helvetica; font-size: 12px; font-style: normal; font-variant-ligatures: normal; font-variant-caps: normal; font-weight: 400; letter-spacing: normal; orphans: 2; text-align: left; text-indent: 0px; text-transform: none; widows: 2; word-spacing: 0px; -webkit-text-stroke-width: 0px; background-color: rgb(251, 251, 251); text-decoration-thickness: initial; text-decoration-style: initial; text-decoration-color: initial;&quot;&gt;&lt;span style=&quot;color: rgb(0, 0, 0); font-family: Helvetica; font-size: 12px; font-style: normal; font-variant-ligatures: normal; font-variant-caps: normal; font-weight: 400; letter-spacing: normal; orphans: 2; text-align: left; text-indent: 0px; text-transform: none; widows: 2; word-spacing: 0px; -webkit-text-stroke-width: 0px; background-color: rgb(251, 251, 251); text-decoration-thickness: initial; text-decoration-style: initial; text-decoration-color: initial; float: none; display: inline !important;&quot;&gt;seferler[&lt;/span&gt;&lt;font color=&quot;#ff0000&quot; style=&quot;border-color: var(--border-color); font-family: Helvetica; font-size: 12px; font-style: normal; font-variant-ligatures: normal; font-variant-caps: normal; font-weight: 400; letter-spacing: normal; orphans: 2; text-align: left; text-indent: 0px; text-transform: none; widows: 2; word-spacing: 0px; -webkit-text-stroke-width: 0px; background-color: rgb(251, 251, 251); text-decoration-thickness: initial; text-decoration-style: initial; text-decoration-color: initial;&quot;&gt;sefer_id(int(50))&lt;/font&gt;&lt;span style=&quot;color: rgb(0, 0, 0); font-family: Helvetica; font-size: 12px; font-style: normal; font-variant-ligatures: normal; font-variant-caps: normal; font-weight: 400; letter-spacing: normal; orphans: 2; text-align: left; text-indent: 0px; text-transform: none; widows: 2; word-spacing: 0px; -webkit-text-stroke-width: 0px; background-color: rgb(251, 251, 251); text-decoration-thickness: initial; text-decoration-style: initial; text-decoration-color: initial; float: none; display: inline !important;&quot;&gt;, &lt;/span&gt;&lt;span style=&quot;font-family: Helvetica; font-size: 12px; font-style: normal; font-variant-ligatures: normal; font-variant-caps: normal; font-weight: 400; letter-spacing: normal; orphans: 2; text-align: left; text-indent: 0px; text-transform: none; widows: 2; word-spacing: 0px; -webkit-text-stroke-width: 0px; background-color: rgb(251, 251, 251); text-decoration-thickness: initial; text-decoration-style: initial; text-decoration-color: initial; float: none; display: inline !important;&quot;&gt;&lt;font color=&quot;#009900&quot;&gt;kalkis_yeri_id(int(50), varis_yeri_id(int(50))&lt;/font&gt;&lt;/span&gt;&lt;span style=&quot;color: rgb(0, 0, 0); font-family: Helvetica; font-size: 12px; font-style: normal; font-variant-ligatures: normal; font-variant-caps: normal; font-weight: 400; letter-spacing: normal; orphans: 2; text-align: left; text-indent: 0px; text-transform: none; widows: 2; word-spacing: 0px; -webkit-text-stroke-width: 0px; background-color: rgb(251, 251, 251); text-decoration-thickness: initial; text-decoration-style: initial; text-decoration-color: initial; float: none; display: inline !important;&quot;&gt;,&lt;/span&gt;&lt;span style=&quot;font-family: Helvetica; font-size: 12px; font-style: normal; font-variant-ligatures: normal; font-variant-caps: normal; font-weight: 400; letter-spacing: normal; orphans: 2; text-align: left; text-indent: 0px; text-transform: none; widows: 2; word-spacing: 0px; -webkit-text-stroke-width: 0px; background-color: rgb(251, 251, 251); text-decoration-thickness: initial; text-decoration-style: initial; text-decoration-color: initial; float: none; display: inline !important;&quot;&gt;&lt;font color=&quot;#009900&quot;&gt;ucak_id(int(50)&lt;/font&gt;&lt;/span&gt;&lt;span style=&quot;font-family: Helvetica; font-size: 12px; font-style: normal; font-variant-ligatures: normal; font-variant-caps: normal; font-weight: 400; letter-spacing: normal; orphans: 2; text-align: left; text-indent: 0px; text-transform: none; widows: 2; word-spacing: 0px; -webkit-text-stroke-width: 0px; background-color: rgb(251, 251, 251); text-decoration-thickness: initial; text-decoration-style: initial; text-decoration-color: initial; float: none; display: inline !important;&quot;&gt;, varis_tarih_saat(datetime),kalkis_tarih_saat(datetime)&lt;/span&gt;&lt;span style=&quot;color: rgb(0, 0, 0); font-family: Helvetica; font-size: 12px; font-style: normal; font-variant-ligatures: normal; font-variant-caps: normal; font-weight: 400; letter-spacing: normal; orphans: 2; text-align: left; text-indent: 0px; text-transform: none; widows: 2; word-spacing: 0px; -webkit-text-stroke-width: 0px; background-color: rgb(251, 251, 251); text-decoration-thickness: initial; text-decoration-style: initial; text-decoration-color: initial; float: none; display: inline !important;&quot;&gt;]&lt;/span&gt;&lt;br style=&quot;border-color: var(--border-color); color: rgb(0, 0, 0); font-family: Helvetica; font-size: 12px; font-style: normal; font-variant-ligatures: normal; font-variant-caps: normal; font-weight: 400; letter-spacing: normal; orphans: 2; text-align: left; text-indent: 0px; text-transform: none; widows: 2; word-spacing: 0px; -webkit-text-stroke-width: 0px; background-color: rgb(251, 251, 251); text-decoration-thickness: initial; text-decoration-style: initial; text-decoration-color: initial;&quot;&gt;&lt;br style=&quot;border-color: var(--border-color); color: rgb(0, 0, 0); font-family: Helvetica; font-size: 12px; font-style: normal; font-variant-ligatures: normal; font-variant-caps: normal; font-weight: 400; letter-spacing: normal; orphans: 2; text-align: left; text-indent: 0px; text-transform: none; widows: 2; word-spacing: 0px; -webkit-text-stroke-width: 0px; background-color: rgb(251, 251, 251); text-decoration-thickness: initial; text-decoration-style: initial; text-decoration-color: initial;&quot;&gt;&lt;span style=&quot;color: rgb(0, 0, 0); font-family: Helvetica; font-size: 12px; font-style: normal; font-variant-ligatures: normal; font-variant-caps: normal; font-weight: 400; letter-spacing: normal; orphans: 2; text-align: left; text-indent: 0px; text-transform: none; widows: 2; word-spacing: 0px; -webkit-text-stroke-width: 0px; background-color: rgb(251, 251, 251); text-decoration-thickness: initial; text-decoration-style: initial; text-decoration-color: initial; float: none; display: inline !important;&quot;&gt;personeller[&lt;/span&gt;&lt;font color=&quot;#ff0000&quot; style=&quot;border-color: var(--border-color); font-family: Helvetica; font-size: 12px; font-style: normal; font-variant-ligatures: normal; font-variant-caps: normal; font-weight: 400; letter-spacing: normal; orphans: 2; text-align: left; text-indent: 0px; text-transform: none; widows: 2; word-spacing: 0px; -webkit-text-stroke-width: 0px; background-color: rgb(251, 251, 251); text-decoration-thickness: initial; text-decoration-style: initial; text-decoration-color: initial;&quot;&gt;personel_id(int(50)),&lt;span&gt;&amp;nbsp;&lt;/span&gt;&lt;/font&gt;&lt;span style=&quot;color: rgb(0, 0, 0); font-family: Helvetica; font-size: 12px; font-style: normal; font-variant-ligatures: normal; font-variant-caps: normal; font-weight: 400; letter-spacing: normal; orphans: 2; text-align: left; text-indent: 0px; text-transform: none; widows: 2; word-spacing: 0px; -webkit-text-stroke-width: 0px; background-color: rgb(251, 251, 251); text-decoration-thickness: initial; text-decoration-style: initial; text-decoration-color: initial; float: none; display: inline !important;&quot;&gt;ad(varchar(50)), soyad(varchar(50)), cinsiyet(varchar(15)), dogum_tarihi(date), tecrube_yili(int(20)),&lt;/span&gt;&lt;span style=&quot;font-family: Helvetica; font-size: 12px; font-style: normal; font-variant-ligatures: normal; font-variant-caps: normal; font-weight: 400; letter-spacing: normal; orphans: 2; text-align: left; text-indent: 0px; text-transform: none; widows: 2; word-spacing: 0px; -webkit-text-stroke-width: 0px; background-color: rgb(251, 251, 251); text-decoration-thickness: initial; text-decoration-style: initial; text-decoration-color: initial; float: none; display: inline !important;&quot;&gt;&lt;font color=&quot;#009900&quot;&gt;personel_tur_id(int(50)),sirket_id(int(50))&lt;/font&gt;&lt;/span&gt;&lt;span style=&quot;color: rgb(0, 0, 0); font-family: Helvetica; font-size: 12px; font-style: normal; font-variant-ligatures: normal; font-variant-caps: normal; font-weight: 400; letter-spacing: normal; orphans: 2; text-align: left; text-indent: 0px; text-transform: none; widows: 2; word-spacing: 0px; -webkit-text-stroke-width: 0px; background-color: rgb(251, 251, 251); text-decoration-thickness: initial; text-decoration-style: initial; text-decoration-color: initial; float: none; display: inline !important;&quot;&gt;]&amp;nbsp;&lt;/span&gt;&lt;br style=&quot;border-color: var(--border-color); color: rgb(0, 0, 0); font-family: Helvetica; font-size: 12px; font-style: normal; font-variant-ligatures: normal; font-variant-caps: normal; font-weight: 400; letter-spacing: normal; orphans: 2; text-align: left; text-indent: 0px; text-transform: none; widows: 2; word-spacing: 0px; -webkit-text-stroke-width: 0px; background-color: rgb(251, 251, 251); text-decoration-thickness: initial; text-decoration-style: initial; text-decoration-color: initial;&quot;&gt;&lt;br style=&quot;border-color: var(--border-color); color: rgb(0, 0, 0); font-family: Helvetica; font-size: 12px; font-style: normal; font-variant-ligatures: normal; font-variant-caps: normal; font-weight: 400; letter-spacing: normal; orphans: 2; text-align: left; text-indent: 0px; text-transform: none; widows: 2; word-spacing: 0px; -webkit-text-stroke-width: 0px; background-color: rgb(251, 251, 251); text-decoration-thickness: initial; text-decoration-style: initial; text-decoration-color: initial;&quot;&gt;&lt;span style=&quot;color: rgb(0, 0, 0); font-family: Helvetica; font-size: 12px; font-style: normal; font-variant-ligatures: normal; font-variant-caps: normal; font-weight: 400; letter-spacing: normal; orphans: 2; text-align: left; text-indent: 0px; text-transform: none; widows: 2; word-spacing: 0px; -webkit-text-stroke-width: 0px; background-color: rgb(251, 251, 251); text-decoration-thickness: initial; text-decoration-style: initial; text-decoration-color: initial; float: none; display: inline !important;&quot;&gt;kullanici[&lt;/span&gt;&lt;span style=&quot;font-family: Helvetica; font-size: 12px; font-style: normal; font-variant-ligatures: normal; font-variant-caps: normal; font-weight: 400; letter-spacing: normal; orphans: 2; text-align: left; text-indent: 0px; text-transform: none; widows: 2; word-spacing: 0px; -webkit-text-stroke-width: 0px; background-color: rgb(251, 251, 251); text-decoration-thickness: initial; text-decoration-style: initial; text-decoration-color: initial; float: none; display: inline !important;&quot;&gt;&lt;font color=&quot;#ff3333&quot;&gt;kullanici&lt;/font&gt;&lt;/span&gt;&lt;font color=&quot;#ff0000&quot; style=&quot;border-color: var(--border-color); font-family: Helvetica; font-size: 12px; font-style: normal; font-variant-ligatures: normal; font-variant-caps: normal; font-weight: 400; letter-spacing: normal; orphans: 2; text-align: left; text-indent: 0px; text-transform: none; widows: 2; word-spacing: 0px; -webkit-text-stroke-width: 0px; background-color: rgb(251, 251, 251); text-decoration-thickness: initial; text-decoration-style: initial; text-decoration-color: initial;&quot;&gt;_id(int(50))&lt;/font&gt;&lt;span style=&quot;color: rgb(0, 0, 0); font-family: Helvetica; font-size: 12px; font-style: normal; font-variant-ligatures: normal; font-variant-caps: normal; font-weight: 400; letter-spacing: normal; orphans: 2; text-align: left; text-indent: 0px; text-transform: none; widows: 2; word-spacing: 0px; -webkit-text-stroke-width: 0px; background-color: rgb(251, 251, 251); text-decoration-thickness: initial; text-decoration-style: initial; text-decoration-color: initial; float: none; display: inline !important;&quot;&gt;, ad(varchar(50)),soyad(varchar(50)), tel_no(bigint(50)),cinsiyer(varchar(20)),tc_no(bigint(50)),sifre(varchar(50)),dogum_tarihi(date),engelli(bit),&lt;br&gt;&lt;/span&gt;&lt;span style=&quot;font-family: Helvetica; font-size: 12px; font-style: normal; font-variant-ligatures: normal; font-variant-caps: normal; font-weight: 400; letter-spacing: normal; orphans: 2; text-align: left; text-indent: 0px; text-transform: none; widows: 2; word-spacing: 0px; -webkit-text-stroke-width: 0px; background-color: rgb(251, 251, 251); text-decoration-thickness: initial; text-decoration-style: initial; text-decoration-color: initial; float: none; display: inline !important;&quot;&gt;&lt;font color=&quot;#009900&quot;&gt;kullanici_tip_id(int(11)),meslek_id(int(50)), log_kaydi_id(int(50))&lt;/font&gt;&lt;/span&gt;&lt;span style=&quot;color: rgb(0, 0, 0); font-family: Helvetica; font-size: 12px; font-style: normal; font-variant-ligatures: normal; font-variant-caps: normal; font-weight: 400; letter-spacing: normal; orphans: 2; text-align: left; text-indent: 0px; text-transform: none; widows: 2; word-spacing: 0px; -webkit-text-stroke-width: 0px; background-color: rgb(251, 251, 251); text-decoration-thickness: initial; text-decoration-style: initial; text-decoration-color: initial; float: none; display: inline !important;&quot;&gt;]&amp;nbsp;&lt;/span&gt;&lt;br style=&quot;border-color: var(--border-color); color: rgb(0, 0, 0); font-family: Helvetica; font-size: 12px; font-style: normal; font-variant-ligatures: normal; font-variant-caps: normal; font-weight: 400; letter-spacing: normal; orphans: 2; text-align: left; text-indent: 0px; text-transform: none; widows: 2; word-spacing: 0px; -webkit-text-stroke-width: 0px; background-color: rgb(251, 251, 251); text-decoration-thickness: initial; text-decoration-style: initial; text-decoration-color: initial;&quot;&gt;&lt;br style=&quot;border-color: var(--border-color); color: rgb(0, 0, 0); font-family: Helvetica; font-size: 12px; font-style: normal; font-variant-ligatures: normal; font-variant-caps: normal; font-weight: 400; letter-spacing: normal; orphans: 2; text-align: left; text-indent: 0px; text-transform: none; widows: 2; word-spacing: 0px; -webkit-text-stroke-width: 0px; background-color: rgb(251, 251, 251); text-decoration-thickness: initial; text-decoration-style: initial; text-decoration-color: initial;&quot;&gt;&lt;span style=&quot;color: rgb(0, 0, 0); font-family: Helvetica; font-size: 12px; font-style: normal; font-variant-ligatures: normal; font-variant-caps: normal; font-weight: 400; letter-spacing: normal; orphans: 2; text-align: left; text-indent: 0px; text-transform: none; widows: 2; word-spacing: 0px; -webkit-text-stroke-width: 0px; background-color: rgb(251, 251, 251); text-decoration-thickness: initial; text-decoration-style: initial; text-decoration-color: initial; float: none; display: inline !important;&quot;&gt;koltuklar[&lt;/span&gt;&lt;font color=&quot;#ff0000&quot; style=&quot;border-color: var(--border-color); font-family: Helvetica; font-size: 12px; font-style: normal; font-variant-ligatures: normal; font-variant-caps: normal; font-weight: 400; letter-spacing: normal; orphans: 2; text-align: left; text-indent: 0px; text-transform: none; widows: 2; word-spacing: 0px; -webkit-text-stroke-width: 0px; background-color: rgb(251, 251, 251); text-decoration-thickness: initial; text-decoration-style: initial; text-decoration-color: initial;&quot;&gt;koltuk_no(varchar(50))&lt;/font&gt;&lt;span style=&quot;font-family: Helvetica; font-size: 12px; font-style: normal; font-variant-ligatures: normal; font-variant-caps: normal; font-weight: 400; letter-spacing: normal; orphans: 2; text-align: left; text-indent: 0px; text-transform: none; widows: 2; word-spacing: 0px; -webkit-text-stroke-width: 0px; background-color: rgb(251, 251, 251); text-decoration-thickness: initial; text-decoration-style: initial; text-decoration-color: initial; float: none; display: inline !important;&quot;&gt;&lt;font style=&quot;border-color: var(--border-color);&quot;&gt;,koltuk_sinifi&lt;/font&gt;(varchar(20)),fiyat(int(20))]&lt;br&gt;&lt;/span&gt;&lt;br style=&quot;border-color: var(--border-color); color: rgb(0, 0, 0); font-family: Helvetica; font-size: 12px; font-style: normal; font-variant-ligatures: normal; font-variant-caps: normal; font-weight: 400; letter-spacing: normal; orphans: 2; text-align: left; text-indent: 0px; text-transform: none; widows: 2; word-spacing: 0px; -webkit-text-stroke-width: 0px; background-color: rgb(251, 251, 251); text-decoration-thickness: initial; text-decoration-style: initial; text-decoration-color: initial;&quot;&gt;&lt;span style=&quot;color: rgb(0, 0, 0); font-family: Helvetica; font-size: 12px; font-style: normal; font-variant-ligatures: normal; font-variant-caps: normal; font-weight: 400; letter-spacing: normal; orphans: 2; text-align: left; text-indent: 0px; text-transform: none; widows: 2; word-spacing: 0px; -webkit-text-stroke-width: 0px; background-color: rgb(251, 251, 251); text-decoration-thickness: initial; text-decoration-style: initial; text-decoration-color: initial; float: none; display: inline !important;&quot;&gt;satin_alim[&lt;/span&gt;&lt;span style=&quot;font-family: Helvetica; font-size: 12px; font-style: normal; font-variant-ligatures: normal; font-variant-caps: normal; font-weight: 400; letter-spacing: normal; orphans: 2; text-align: left; text-indent: 0px; text-transform: none; widows: 2; word-spacing: 0px; -webkit-text-stroke-width: 0px; background-color: rgb(251, 251, 251); text-decoration-thickness: initial; text-decoration-style: initial; text-decoration-color: initial; float: none; display: inline !important;&quot;&gt;&lt;font color=&quot;#ff3333&quot;&gt;satin_alim&lt;/font&gt;&lt;/span&gt;&lt;font color=&quot;#ff0000&quot; style=&quot;border-color: var(--border-color); font-family: Helvetica; font-size: 12px; font-style: normal; font-variant-ligatures: normal; font-variant-caps: normal; font-weight: 400; letter-spacing: normal; orphans: 2; text-align: left; text-indent: 0px; text-transform: none; widows: 2; word-spacing: 0px; -webkit-text-stroke-width: 0px; background-color: rgb(251, 251, 251); text-decoration-thickness: initial; text-decoration-style: initial; text-decoration-color: initial;&quot;&gt;_id(int(50))&lt;/font&gt;&lt;span style=&quot;color: rgb(0, 0, 0); font-family: Helvetica; font-size: 12px; font-style: normal; font-variant-ligatures: normal; font-variant-caps: normal; font-weight: 400; letter-spacing: normal; orphans: 2; text-align: left; text-indent: 0px; text-transform: none; widows: 2; word-spacing: 0px; -webkit-text-stroke-width: 0px; background-color: rgb(251, 251, 251); text-decoration-thickness: initial; text-decoration-style: initial; text-decoration-color: initial; float: none; display: inline !important;&quot;&gt;,&lt;/span&gt;&lt;span style=&quot;font-family: Helvetica; font-size: 12px; font-style: normal; font-variant-ligatures: normal; font-variant-caps: normal; font-weight: 400; letter-spacing: normal; orphans: 2; text-align: left; text-indent: 0px; text-transform: none; widows: 2; word-spacing: 0px; -webkit-text-stroke-width: 0px; background-color: rgb(251, 251, 251); text-decoration-thickness: initial; text-decoration-style: initial; text-decoration-color: initial; float: none; display: inline !important;&quot;&gt;&lt;font color=&quot;#009900&quot;&gt;sefer_id(int(50))&lt;/font&gt;&lt;/span&gt;&lt;span style=&quot;color: rgb(0, 0, 0); font-family: Helvetica; font-size: 12px; font-style: normal; font-variant-ligatures: normal; font-variant-caps: normal; font-weight: 400; letter-spacing: normal; orphans: 2; text-align: left; text-indent: 0px; text-transform: none; widows: 2; word-spacing: 0px; -webkit-text-stroke-width: 0px; background-color: rgb(251, 251, 251); text-decoration-thickness: initial; text-decoration-style: initial; text-decoration-color: initial; float: none; display: inline !important;&quot;&gt;,&lt;/span&gt;&lt;span style=&quot;font-family: Helvetica; font-size: 12px; font-style: normal; font-variant-ligatures: normal; font-variant-caps: normal; font-weight: 400; letter-spacing: normal; orphans: 2; text-align: left; text-indent: 0px; text-transform: none; widows: 2; word-spacing: 0px; -webkit-text-stroke-width: 0px; background-color: rgb(251, 251, 251); text-decoration-thickness: initial; text-decoration-style: initial; text-decoration-color: initial; float: none; display: inline !important;&quot;&gt;&lt;font color=&quot;#009900&quot;&gt;koltuk_no(int(50)&lt;/font&gt;&lt;/span&gt;&lt;span style=&quot;font-family: Helvetica; font-size: 12px; font-style: normal; font-variant-ligatures: normal; font-variant-caps: normal; font-weight: 400; letter-spacing: normal; orphans: 2; text-align: left; text-indent: 0px; text-transform: none; widows: 2; word-spacing: 0px; -webkit-text-stroke-width: 0px; background-color: rgb(251, 251, 251); text-decoration-thickness: initial; text-decoration-style: initial; text-decoration-color: initial; float: none; display: inline !important;&quot;&gt;&lt;font color=&quot;#009900&quot;&gt;)&lt;/font&gt;&lt;/span&gt;&lt;span style=&quot;color: rgb(0, 0, 0); font-family: Helvetica; font-size: 12px; font-style: normal; font-variant-ligatures: normal; font-variant-caps: normal; font-weight: 400; letter-spacing: normal; orphans: 2; text-align: left; text-indent: 0px; text-transform: none; widows: 2; word-spacing: 0px; -webkit-text-stroke-width: 0px; background-color: rgb(251, 251, 251); text-decoration-thickness: initial; text-decoration-style: initial; text-decoration-color: initial; float: none; display: inline !important;&quot;&gt;,fiyat(int(50)),satilils_tarihi(datetime),&lt;br&gt;&lt;/span&gt;&lt;span style=&quot;font-family: Helvetica; font-size: 12px; font-style: normal; font-variant-ligatures: normal; font-variant-caps: normal; font-weight: 400; letter-spacing: normal; orphans: 2; text-align: left; text-indent: 0px; text-transform: none; widows: 2; word-spacing: 0px; -webkit-text-stroke-width: 0px; background-color: rgb(251, 251, 251); text-decoration-thickness: initial; text-decoration-style: initial; text-decoration-color: initial; float: none; display: inline !important;&quot;&gt;&lt;font color=&quot;#009900&quot;&gt;hizmet_id(int(50))&lt;/font&gt;&lt;/span&gt;&lt;span style=&quot;color: rgb(0, 0, 0); font-family: Helvetica; font-size: 12px; font-style: normal; font-variant-ligatures: normal; font-variant-caps: normal; font-weight: 400; letter-spacing: normal; orphans: 2; text-align: left; text-indent: 0px; text-transform: none; widows: 2; word-spacing: 0px; -webkit-text-stroke-width: 0px; background-color: rgb(251, 251, 251); text-decoration-thickness: initial; text-decoration-style: initial; text-decoration-color: initial; float: none; display: inline !important;&quot;&gt;,&lt;/span&gt;&lt;span style=&quot;font-family: Helvetica; font-size: 12px; font-style: normal; font-variant-ligatures: normal; font-variant-caps: normal; font-weight: 400; letter-spacing: normal; orphans: 2; text-align: left; text-indent: 0px; text-transform: none; widows: 2; word-spacing: 0px; -webkit-text-stroke-width: 0px; background-color: rgb(251, 251, 251); text-decoration-thickness: initial; text-decoration-style: initial; text-decoration-color: initial; float: none; display: inline !important;&quot;&gt;&lt;font color=&quot;#009900&quot;&gt;kullanici_id(int(50))&lt;/font&gt;&lt;/span&gt;&lt;span style=&quot;color: rgb(0, 0, 0); font-family: Helvetica; font-size: 12px; font-style: normal; font-variant-ligatures: normal; font-variant-caps: normal; font-weight: 400; letter-spacing: normal; orphans: 2; text-align: left; text-indent: 0px; text-transform: none; widows: 2; word-spacing: 0px; -webkit-text-stroke-width: 0px; background-color: rgb(251, 251, 251); text-decoration-thickness: initial; text-decoration-style: initial; text-decoration-color: initial; float: none; display: inline !important;&quot;&gt;]&lt;br&gt;&lt;/span&gt;&lt;span style=&quot;font-family: Helvetica; font-size: 12px; font-style: normal; font-variant-ligatures: normal; font-variant-caps: normal; font-weight: 400; letter-spacing: normal; orphans: 2; text-align: left; text-indent: 0px; text-transform: none; widows: 2; word-spacing: 0px; -webkit-text-stroke-width: 0px; background-color: rgb(251, 251, 251); text-decoration-thickness: initial; text-decoration-style: initial; text-decoration-color: initial; float: none; display: inline !important;&quot;&gt;&lt;br&gt;ucak_koltuk[&lt;font style=&quot;border-color: var(--border-color);&quot; color=&quot;#009900&quot;&gt;koltuk_no(varchar(50)), ucak_id(int(50))&lt;/font&gt;&lt;span style=&quot;color: rgb(0, 0, 0); border-color: var(--border-color);&quot;&gt;]&lt;br&gt;&lt;/span&gt;&lt;br&gt;havalimani[&lt;font color=&quot;#ff3333&quot; style=&quot;border-color: var(--border-color);&quot;&gt;havalimani_id(int(50))&lt;/font&gt;&lt;font style=&quot;color: rgb(0, 0, 0); border-color: var(--border-color);&quot; color=&quot;#009900&quot;&gt;,&lt;/font&gt;&lt;font style=&quot;border-color: var(--border-color);&quot;&gt;havalimani_adi(varchar(50)),IATA_kodu(varchar(20)),&lt;font color=&quot;#009900&quot;&gt;sehir_id(int(50))&lt;/font&gt;&lt;/font&gt;]&lt;br&gt;&lt;br&gt;ucak_model[&lt;font color=&quot;#ff3333&quot;&gt;ucak_model_id(int(50))&lt;/font&gt;,koltuk_sayisi(int(50)),model_adi(varchar(50))]&lt;br&gt;&lt;br&gt;sehirler[&lt;font color=&quot;#ff3333&quot;&gt;sehir_id&lt;font style=&quot;border-color: var(--border-color);&quot;&gt;(int(50))&lt;/font&gt;&lt;/font&gt;,sehir_adi(varchar(50)),sehir_kodu(varchar(50))]&lt;br&gt;&lt;br&gt;kullanici_tipi[&lt;font color=&quot;#ff3333&quot;&gt;tip_id(int50))&lt;/font&gt;,tip_adi(varchar(50))]&lt;br&gt;&lt;br&gt;personel_turleri[&lt;font color=&quot;#ff3333&quot;&gt;personel_tur_id(int(50))&lt;/font&gt;,personel_tur_adi(varchar(50))]&lt;br&gt;&lt;br&gt;hizmetler[&lt;font color=&quot;#ff3333&quot;&gt;hizmet_id(int(50))&lt;/font&gt;,hizmet_adi(varchar(50)),ücreti(int(50))]&lt;br&gt;&lt;br&gt;sirketler[&lt;font color=&quot;#ff3333&quot;&gt;sirket&lt;/font&gt;&lt;font style=&quot;border-color: var(--border-color);&quot; color=&quot;#ff3333&quot;&gt;_id(int(50))&lt;/font&gt;,sirket_adi(varchar(50)),kurulus_tarihi(date),piyasa_degeri(bigint(30))]&lt;br&gt;&lt;br&gt;meslek[&lt;font color=&quot;#ff3333&quot;&gt;meslek_id(int(50))&lt;/font&gt;&lt;font style=&quot;border-color: var(--border-color);&quot;&gt;, meslek_adi(varchar(50))]&lt;br&gt;&lt;br&gt;log_kaydi[&lt;font color=&quot;#ff3333&quot;&gt;log_kaydi&lt;/font&gt;&lt;font style=&quot;border-color: var(--border-color);&quot; color=&quot;#ff3333&quot;&gt;_id(int(50))&lt;/font&gt;&lt;font style=&quot;border-color: var(--border-color);&quot;&gt;, giris_tarihi(timestamp), cikis_tarihi(timestamp), ip_adresivarchar(30)), tarayici_adi(varchar(30)), sayfa_adi(varchar(30),&lt;font color=&quot;#009900&quot;&gt;kullanici_id(int(50))&lt;/font&gt;]&lt;/font&gt;&lt;br&gt;&lt;/font&gt;&lt;br&gt;&lt;br style=&quot;border-color: var(--border-color);&quot;&gt;&lt;/span&gt;" style="text;whiteSpace=wrap;html=1;" parent="1" vertex="1">
          <mxGeometry x="1350" y="-920" width="560" height="570" as="geometry" />
        </mxCell>
        <mxCell id="yf1KIowhAy0mrgekBq7h-275" value="" style="endArrow=none;html=1;rounded=0;" parent="1" source="yf1KIowhAy0mrgekBq7h-163" target="yf1KIowhAy0mrgekBq7h-276" edge="1">
          <mxGeometry width="50" height="50" relative="1" as="geometry">
            <mxPoint x="60" y="-666" as="sourcePoint" />
            <mxPoint x="-86.5" y="-555" as="targetPoint" />
          </mxGeometry>
        </mxCell>
        <mxCell id="yf1KIowhAy0mrgekBq7h-276" value="&lt;font style=&quot;font-size: 10px;&quot;&gt;fiyat&lt;/font&gt;" style="ellipse;whiteSpace=wrap;html=1;aspect=fixed;" parent="1" vertex="1">
          <mxGeometry x="50" y="-597.5" width="60" height="60" as="geometry" />
        </mxCell>
        <mxCell id="yf1KIowhAy0mrgekBq7h-277" value="" style="rhombus;whiteSpace=wrap;html=1;" parent="1" vertex="1">
          <mxGeometry x="1126" y="-930" width="70" height="70" as="geometry" />
        </mxCell>
        <mxCell id="yf1KIowhAy0mrgekBq7h-278" value="Varlık&amp;nbsp;" style="text;html=1;align=center;verticalAlign=middle;resizable=0;points=[];autosize=1;strokeColor=none;fillColor=none;" parent="1" vertex="1">
          <mxGeometry x="1221" y="-910" width="60" height="30" as="geometry" />
        </mxCell>
        <mxCell id="yf1KIowhAy0mrgekBq7h-284" value="&lt;font style=&quot;font-size: 36px;&quot;&gt;&lt;font color=&quot;#ff3333&quot;&gt;AirePulso BİS&lt;/font&gt;&lt;font style=&quot;font-size: 36px;&quot; color=&quot;#ff3333&quot;&gt;&amp;nbsp;PROJESİ&lt;/font&gt;&lt;/font&gt;" style="text;html=1;strokeColor=none;fillColor=none;align=center;verticalAlign=middle;whiteSpace=wrap;rounded=0;" parent="1" vertex="1">
          <mxGeometry x="322" y="-1000" width="974" height="30" as="geometry" />
        </mxCell>
        <mxCell id="JUkXkB-YIdkapwzii43R-1" value="&lt;font style=&quot;font-size: 11px;&quot;&gt;koltuk_no&lt;/font&gt;" style="ellipse;whiteSpace=wrap;html=1;aspect=fixed;fillColor=#d5e8d4;strokeColor=#82b366;" parent="1" vertex="1">
          <mxGeometry x="110" y="-634" width="60" height="60" as="geometry" />
        </mxCell>
        <mxCell id="JUkXkB-YIdkapwzii43R-2" value="" style="endArrow=none;html=1;rounded=0;entryX=0.585;entryY=0.998;entryDx=0;entryDy=0;entryPerimeter=0;" parent="1" source="yf1KIowhAy0mrgekBq7h-256" target="JUkXkB-YIdkapwzii43R-1" edge="1">
          <mxGeometry width="50" height="50" relative="1" as="geometry">
            <mxPoint x="170" y="-551" as="sourcePoint" />
            <mxPoint x="154.5" y="-591.5" as="targetPoint" />
          </mxGeometry>
        </mxCell>
        <mxCell id="JUkXkB-YIdkapwzii43R-3" value="" style="endArrow=none;html=1;rounded=0;" parent="1" source="JUkXkB-YIdkapwzii43R-4" target="yf1KIowhAy0mrgekBq7h-256" edge="1">
          <mxGeometry width="50" height="50" relative="1" as="geometry">
            <mxPoint x="57.110000000000014" y="-258" as="sourcePoint" />
            <mxPoint x="128.11" y="-338" as="targetPoint" />
          </mxGeometry>
        </mxCell>
        <mxCell id="JUkXkB-YIdkapwzii43R-4" value="ucak_id" style="ellipse;whiteSpace=wrap;html=1;aspect=fixed;fillColor=#d5e8d4;strokeColor=#82b366;" parent="1" vertex="1">
          <mxGeometry x="134" y="-462" width="60" height="60" as="geometry" />
        </mxCell>
        <mxCell id="YFkLfKQitdEphh0zkhBd-14" value="" style="endArrow=none;html=1;rounded=0;" parent="1" edge="1">
          <mxGeometry width="50" height="50" relative="1" as="geometry">
            <mxPoint x="30" y="-520" as="sourcePoint" />
            <mxPoint x="30" y="-500" as="targetPoint" />
          </mxGeometry>
        </mxCell>
        <mxCell id="YFkLfKQitdEphh0zkhBd-16" value="kullanici" style="rounded=0;whiteSpace=wrap;html=1;" parent="1" vertex="1">
          <mxGeometry x="-490" y="-340" width="120" height="60" as="geometry" />
        </mxCell>
        <mxCell id="YFkLfKQitdEphh0zkhBd-17" value="" style="endArrow=none;html=1;rounded=0;" parent="1" source="YFkLfKQitdEphh0zkhBd-18" target="YFkLfKQitdEphh0zkhBd-16" edge="1">
          <mxGeometry width="50" height="50" relative="1" as="geometry">
            <mxPoint x="-481" y="-229.5" as="sourcePoint" />
            <mxPoint x="-431" y="-262.5" as="targetPoint" />
          </mxGeometry>
        </mxCell>
        <mxCell id="YFkLfKQitdEphh0zkhBd-18" value="kullanici_id" style="ellipse;whiteSpace=wrap;html=1;aspect=fixed;fillColor=#f8cecc;strokeColor=#b85450;" parent="1" vertex="1">
          <mxGeometry x="-550" y="-422.5" width="60" height="60" as="geometry" />
        </mxCell>
        <mxCell id="YFkLfKQitdEphh0zkhBd-19" value="tc_no" style="ellipse;whiteSpace=wrap;html=1;aspect=fixed;" parent="1" vertex="1">
          <mxGeometry x="-580" y="-184" width="60" height="60" as="geometry" />
        </mxCell>
        <mxCell id="YFkLfKQitdEphh0zkhBd-20" value="ad" style="ellipse;whiteSpace=wrap;html=1;aspect=fixed;" parent="1" vertex="1">
          <mxGeometry x="-345.5" y="-402.5" width="60" height="60" as="geometry" />
        </mxCell>
        <mxCell id="YFkLfKQitdEphh0zkhBd-21" value="" style="endArrow=none;html=1;rounded=0;" parent="1" source="YFkLfKQitdEphh0zkhBd-16" target="YFkLfKQitdEphh0zkhBd-22" edge="1">
          <mxGeometry width="50" height="50" relative="1" as="geometry">
            <mxPoint x="-360" y="-342.5" as="sourcePoint" />
            <mxPoint x="-410" y="-282.5" as="targetPoint" />
          </mxGeometry>
        </mxCell>
        <mxCell id="YFkLfKQitdEphh0zkhBd-22" value="&lt;font style=&quot;font-size: 10px;&quot;&gt;sifre&lt;/font&gt;" style="ellipse;whiteSpace=wrap;html=1;aspect=fixed;" parent="1" vertex="1">
          <mxGeometry x="-405.5" y="-435" width="60" height="60" as="geometry" />
        </mxCell>
        <mxCell id="YFkLfKQitdEphh0zkhBd-23" value="" style="endArrow=none;html=1;rounded=0;" parent="1" source="YFkLfKQitdEphh0zkhBd-16" target="YFkLfKQitdEphh0zkhBd-19" edge="1">
          <mxGeometry width="50" height="50" relative="1" as="geometry">
            <mxPoint x="-420" y="-335.5" as="sourcePoint" />
            <mxPoint x="-370" y="-342.5" as="targetPoint" />
          </mxGeometry>
        </mxCell>
        <mxCell id="YFkLfKQitdEphh0zkhBd-24" value="" style="endArrow=none;html=1;rounded=0;" parent="1" source="YFkLfKQitdEphh0zkhBd-20" target="YFkLfKQitdEphh0zkhBd-16" edge="1">
          <mxGeometry width="50" height="50" relative="1" as="geometry">
            <mxPoint x="-390" y="-212.5" as="sourcePoint" />
            <mxPoint x="-390" y="-252.5" as="targetPoint" />
          </mxGeometry>
        </mxCell>
        <mxCell id="YFkLfKQitdEphh0zkhBd-25" value="" style="endArrow=none;html=1;rounded=0;" parent="1" source="YFkLfKQitdEphh0zkhBd-26" target="YFkLfKQitdEphh0zkhBd-16" edge="1">
          <mxGeometry width="50" height="50" relative="1" as="geometry">
            <mxPoint x="-390" y="-212.5" as="sourcePoint" />
            <mxPoint x="-410" y="-242.5" as="targetPoint" />
          </mxGeometry>
        </mxCell>
        <mxCell id="YFkLfKQitdEphh0zkhBd-26" value="soyad" style="ellipse;whiteSpace=wrap;html=1;aspect=fixed;" parent="1" vertex="1">
          <mxGeometry x="-610" y="-390" width="60" height="60" as="geometry" />
        </mxCell>
        <mxCell id="YFkLfKQitdEphh0zkhBd-27" value="" style="endArrow=none;html=1;rounded=0;" parent="1" source="YFkLfKQitdEphh0zkhBd-28" target="YFkLfKQitdEphh0zkhBd-16" edge="1">
          <mxGeometry width="50" height="50" relative="1" as="geometry">
            <mxPoint x="-590" y="-262.5" as="sourcePoint" />
            <mxPoint x="-532.3333333333335" y="-312.5" as="targetPoint" />
          </mxGeometry>
        </mxCell>
        <mxCell id="YFkLfKQitdEphh0zkhBd-28" value="&lt;font style=&quot;font-size: 10px;&quot;&gt;dogum_tarihi&lt;/font&gt;" style="ellipse;whiteSpace=wrap;html=1;aspect=fixed;" parent="1" vertex="1">
          <mxGeometry x="-600" y="-250" width="60" height="60" as="geometry" />
        </mxCell>
        <mxCell id="YFkLfKQitdEphh0zkhBd-29" value="tel_no" style="ellipse;whiteSpace=wrap;html=1;aspect=fixed;" parent="1" vertex="1">
          <mxGeometry x="-350" y="-262.5" width="60" height="60" as="geometry" />
        </mxCell>
        <mxCell id="YFkLfKQitdEphh0zkhBd-30" value="" style="endArrow=none;html=1;rounded=0;" parent="1" source="YFkLfKQitdEphh0zkhBd-29" target="YFkLfKQitdEphh0zkhBd-16" edge="1">
          <mxGeometry width="50" height="50" relative="1" as="geometry">
            <mxPoint x="-390" y="-112.5" as="sourcePoint" />
            <mxPoint x="-380" y="-210.5" as="targetPoint" />
          </mxGeometry>
        </mxCell>
        <mxCell id="YFkLfKQitdEphh0zkhBd-31" value="cinsiyet" style="ellipse;whiteSpace=wrap;html=1;aspect=fixed;" parent="1" vertex="1">
          <mxGeometry x="-360" y="-160" width="60" height="60" as="geometry" />
        </mxCell>
        <mxCell id="YFkLfKQitdEphh0zkhBd-32" value="" style="endArrow=none;html=1;rounded=0;entryX=0.808;entryY=0.988;entryDx=0;entryDy=0;entryPerimeter=0;" parent="1" source="YFkLfKQitdEphh0zkhBd-31" target="YFkLfKQitdEphh0zkhBd-16" edge="1">
          <mxGeometry width="50" height="50" relative="1" as="geometry">
            <mxPoint x="-477.6300000000001" y="-86.5" as="sourcePoint" />
            <mxPoint x="-439.9984210526318" y="-252.5" as="targetPoint" />
          </mxGeometry>
        </mxCell>
        <mxCell id="YFkLfKQitdEphh0zkhBd-33" value="engelli" style="ellipse;whiteSpace=wrap;html=1;aspect=fixed;" parent="1" vertex="1">
          <mxGeometry x="-420" y="-200" width="60" height="60" as="geometry" />
        </mxCell>
        <mxCell id="YFkLfKQitdEphh0zkhBd-34" value="" style="endArrow=none;html=1;rounded=0;" parent="1" source="YFkLfKQitdEphh0zkhBd-33" target="YFkLfKQitdEphh0zkhBd-16" edge="1">
          <mxGeometry width="50" height="50" relative="1" as="geometry">
            <mxPoint x="-557.6300000000001" y="-52.5" as="sourcePoint" />
            <mxPoint x="-483" y="-229.5" as="targetPoint" />
          </mxGeometry>
        </mxCell>
        <mxCell id="YFkLfKQitdEphh0zkhBd-36" value="" style="endArrow=none;html=1;rounded=0;" parent="1" edge="1">
          <mxGeometry width="50" height="50" relative="1" as="geometry">
            <mxPoint x="-360.48" y="-300" as="sourcePoint" />
            <mxPoint x="-360" y="-320" as="targetPoint" />
          </mxGeometry>
        </mxCell>
        <mxCell id="YFkLfKQitdEphh0zkhBd-42" value="kullanici_tipi" style="rounded=0;whiteSpace=wrap;html=1;" parent="1" vertex="1">
          <mxGeometry x="-490" y="42.5" width="120" height="60" as="geometry" />
        </mxCell>
        <mxCell id="YFkLfKQitdEphh0zkhBd-43" value="&lt;span style=&quot;font-size: 11px;&quot;&gt;tip_id&lt;/span&gt;" style="ellipse;whiteSpace=wrap;html=1;aspect=fixed;fillColor=#f8cecc;strokeColor=#b85450;" parent="1" vertex="1">
          <mxGeometry x="-510" y="-50" width="60" height="60" as="geometry" />
        </mxCell>
        <mxCell id="YFkLfKQitdEphh0zkhBd-44" value="" style="endArrow=none;html=1;rounded=0;entryX=0.585;entryY=0.998;entryDx=0;entryDy=0;entryPerimeter=0;exitX=0.25;exitY=0;exitDx=0;exitDy=0;" parent="1" source="YFkLfKQitdEphh0zkhBd-42" target="YFkLfKQitdEphh0zkhBd-43" edge="1">
          <mxGeometry width="50" height="50" relative="1" as="geometry">
            <mxPoint x="-545.5" y="52.5" as="sourcePoint" />
            <mxPoint x="-495.5" y="2.5" as="targetPoint" />
          </mxGeometry>
        </mxCell>
        <mxCell id="YFkLfKQitdEphh0zkhBd-45" value="" style="endArrow=none;html=1;rounded=0;" parent="1" source="YFkLfKQitdEphh0zkhBd-42" target="YFkLfKQitdEphh0zkhBd-46" edge="1">
          <mxGeometry width="50" height="50" relative="1" as="geometry">
            <mxPoint x="-459.5" y="160.5" as="sourcePoint" />
            <mxPoint x="-593" y="247.5" as="targetPoint" />
          </mxGeometry>
        </mxCell>
        <mxCell id="YFkLfKQitdEphh0zkhBd-46" value="&lt;span style=&quot;font-size: 10px;&quot;&gt;tip_adi&lt;/span&gt;" style="ellipse;whiteSpace=wrap;html=1;aspect=fixed;" parent="1" vertex="1">
          <mxGeometry x="-420" y="-37.5" width="60" height="60" as="geometry" />
        </mxCell>
        <mxCell id="YFkLfKQitdEphh0zkhBd-47" value="" style="endArrow=none;html=1;rounded=0;entryX=0.5;entryY=0;entryDx=0;entryDy=0;exitX=0.5;exitY=1;exitDx=0;exitDy=0;" parent="1" source="YFkLfKQitdEphh0zkhBd-16" target="YFkLfKQitdEphh0zkhBd-42" edge="1">
          <mxGeometry width="50" height="50" relative="1" as="geometry">
            <mxPoint x="-430.5" y="-272.5" as="sourcePoint" />
            <mxPoint x="-430.5" y="-42.5" as="targetPoint" />
          </mxGeometry>
        </mxCell>
        <mxCell id="YFkLfKQitdEphh0zkhBd-48" value="&lt;span style=&quot;font-size: 11px;&quot;&gt;tip_id&lt;/span&gt;" style="ellipse;whiteSpace=wrap;html=1;aspect=fixed;fillColor=#d5e8d4;strokeColor=#82b366;" parent="1" vertex="1">
          <mxGeometry x="-511" y="-212.5" width="60" height="60" as="geometry" />
        </mxCell>
        <mxCell id="YFkLfKQitdEphh0zkhBd-49" value="" style="endArrow=none;html=1;rounded=0;" parent="1" source="YFkLfKQitdEphh0zkhBd-16" target="YFkLfKQitdEphh0zkhBd-48" edge="1">
          <mxGeometry width="50" height="50" relative="1" as="geometry">
            <mxPoint x="-440" y="-115" as="sourcePoint" />
            <mxPoint x="-475.5" y="-155.5" as="targetPoint" />
          </mxGeometry>
        </mxCell>
        <mxCell id="YFkLfKQitdEphh0zkhBd-50" value="" style="endArrow=none;html=1;rounded=0;" parent="1" edge="1">
          <mxGeometry width="50" height="50" relative="1" as="geometry">
            <mxPoint x="-420" y="-262.5" as="sourcePoint" />
            <mxPoint x="-440" y="-262.5" as="targetPoint" />
          </mxGeometry>
        </mxCell>
        <mxCell id="YFkLfKQitdEphh0zkhBd-51" value="" style="endArrow=none;html=1;rounded=0;exitX=1;exitY=0.5;exitDx=0;exitDy=0;entryX=0;entryY=0.5;entryDx=0;entryDy=0;" parent="1" source="YFkLfKQitdEphh0zkhBd-78" target="yf1KIowhAy0mrgekBq7h-195" edge="1">
          <mxGeometry width="50" height="50" relative="1" as="geometry">
            <mxPoint x="-370" y="-310.5" as="sourcePoint" />
            <mxPoint x="50" y="-310.20250000000004" as="targetPoint" />
          </mxGeometry>
        </mxCell>
        <mxCell id="YFkLfKQitdEphh0zkhBd-52" value="" style="endArrow=none;html=1;rounded=0;" parent="1" edge="1">
          <mxGeometry width="50" height="50" relative="1" as="geometry">
            <mxPoint x="-420" y="-250" as="sourcePoint" />
            <mxPoint x="-440" y="-250" as="targetPoint" />
          </mxGeometry>
        </mxCell>
        <mxCell id="YFkLfKQitdEphh0zkhBd-53" value="" style="endArrow=none;html=1;rounded=0;" parent="1" edge="1">
          <mxGeometry width="50" height="50" relative="1" as="geometry">
            <mxPoint x="-420" y="30" as="sourcePoint" />
            <mxPoint x="-440" y="30" as="targetPoint" />
          </mxGeometry>
        </mxCell>
        <mxCell id="YFkLfKQitdEphh0zkhBd-54" value="" style="endArrow=none;html=1;rounded=0;" parent="1" edge="1">
          <mxGeometry width="50" height="50" relative="1" as="geometry">
            <mxPoint x="-120" y="-300" as="sourcePoint" />
            <mxPoint x="-120" y="-320" as="targetPoint" />
          </mxGeometry>
        </mxCell>
        <mxCell id="YFkLfKQitdEphh0zkhBd-57" value="" style="endArrow=none;html=1;rounded=0;" parent="1" edge="1">
          <mxGeometry width="50" height="50" relative="1" as="geometry">
            <mxPoint x="-130.10000000000002" y="-300" as="sourcePoint" />
            <mxPoint x="-130.10000000000002" y="-320" as="targetPoint" />
          </mxGeometry>
        </mxCell>
        <mxCell id="YFkLfKQitdEphh0zkhBd-58" value="" style="endArrow=none;html=1;rounded=0;" parent="1" source="YFkLfKQitdEphh0zkhBd-59" target="yf1KIowhAy0mrgekBq7h-195" edge="1">
          <mxGeometry width="50" height="50" relative="1" as="geometry">
            <mxPoint x="-211" y="-117" as="sourcePoint" />
            <mxPoint x="-185" y="-227.5" as="targetPoint" />
          </mxGeometry>
        </mxCell>
        <mxCell id="YFkLfKQitdEphh0zkhBd-59" value="kullanici_id" style="ellipse;whiteSpace=wrap;html=1;aspect=fixed;fillColor=#d5e8d4;strokeColor=#82b366;" parent="1" vertex="1">
          <mxGeometry x="-174.5" y="-220" width="60" height="60" as="geometry" />
        </mxCell>
        <mxCell id="YFkLfKQitdEphh0zkhBd-62" value="havalimanlari" style="rounded=0;whiteSpace=wrap;html=1;" parent="1" vertex="1">
          <mxGeometry x="630" y="-340" width="120" height="60" as="geometry" />
        </mxCell>
        <mxCell id="YFkLfKQitdEphh0zkhBd-63" value="&lt;font style=&quot;font-size: 9px;&quot;&gt;havalimani_id&lt;/font&gt;" style="ellipse;whiteSpace=wrap;html=1;aspect=fixed;fillColor=#f8cecc;strokeColor=#b85450;" parent="1" vertex="1">
          <mxGeometry x="570" y="-417.5" width="60" height="60" as="geometry" />
        </mxCell>
        <mxCell id="YFkLfKQitdEphh0zkhBd-64" value="" style="endArrow=none;html=1;rounded=0;" parent="1" source="YFkLfKQitdEphh0zkhBd-62" target="YFkLfKQitdEphh0zkhBd-63" edge="1">
          <mxGeometry width="50" height="50" relative="1" as="geometry">
            <mxPoint x="710" y="-370" as="sourcePoint" />
            <mxPoint x="620" y="-370" as="targetPoint" />
          </mxGeometry>
        </mxCell>
        <mxCell id="YFkLfKQitdEphh0zkhBd-65" value="&lt;font style=&quot;font-size: 8px;&quot;&gt;havalimani_adi&lt;/font&gt;" style="ellipse;whiteSpace=wrap;html=1;aspect=fixed;" parent="1" vertex="1">
          <mxGeometry x="650" y="-417.5" width="60" height="60" as="geometry" />
        </mxCell>
        <mxCell id="YFkLfKQitdEphh0zkhBd-66" value="" style="endArrow=none;html=1;rounded=0;" parent="1" source="YFkLfKQitdEphh0zkhBd-62" target="YFkLfKQitdEphh0zkhBd-65" edge="1">
          <mxGeometry width="50" height="50" relative="1" as="geometry">
            <mxPoint x="755" y="-357.5" as="sourcePoint" />
            <mxPoint x="720" y="-387.5" as="targetPoint" />
          </mxGeometry>
        </mxCell>
        <mxCell id="YFkLfKQitdEphh0zkhBd-67" value="&lt;font style=&quot;font-size: 9px;&quot;&gt;IATA_kodu&lt;/font&gt;" style="ellipse;whiteSpace=wrap;html=1;aspect=fixed;" parent="1" vertex="1">
          <mxGeometry x="730" y="-422.5" width="60" height="60" as="geometry" />
        </mxCell>
        <mxCell id="YFkLfKQitdEphh0zkhBd-68" value="" style="endArrow=none;html=1;rounded=0;" parent="1" source="YFkLfKQitdEphh0zkhBd-62" target="YFkLfKQitdEphh0zkhBd-67" edge="1">
          <mxGeometry width="50" height="50" relative="1" as="geometry">
            <mxPoint x="845" y="-342.5" as="sourcePoint" />
            <mxPoint x="766.5739357166644" y="-371.25914857333123" as="targetPoint" />
          </mxGeometry>
        </mxCell>
        <mxCell id="YFkLfKQitdEphh0zkhBd-69" value="" style="endArrow=none;html=1;rounded=0;" parent="1" edge="1">
          <mxGeometry width="50" height="50" relative="1" as="geometry">
            <mxPoint x="620" y="-300" as="sourcePoint" />
            <mxPoint x="620" y="-320" as="targetPoint" />
          </mxGeometry>
        </mxCell>
        <mxCell id="YFkLfKQitdEphh0zkhBd-71" value="hizmetler" style="rounded=0;whiteSpace=wrap;html=1;" parent="1" vertex="1">
          <mxGeometry x="-320" y="-570" width="120" height="60" as="geometry" />
        </mxCell>
        <mxCell id="YFkLfKQitdEphh0zkhBd-72" value="" style="endArrow=none;html=1;rounded=0;" parent="1" source="YFkLfKQitdEphh0zkhBd-73" target="YFkLfKQitdEphh0zkhBd-71" edge="1">
          <mxGeometry width="50" height="50" relative="1" as="geometry">
            <mxPoint x="-375.5" y="-640.5" as="sourcePoint" />
            <mxPoint x="-275.5" y="-663" as="targetPoint" />
          </mxGeometry>
        </mxCell>
        <mxCell id="YFkLfKQitdEphh0zkhBd-73" value="&lt;font style=&quot;font-size: 10px;&quot;&gt;hizmet_id&lt;/font&gt;" style="ellipse;whiteSpace=wrap;html=1;aspect=fixed;fillColor=#f8cecc;strokeColor=#b85450;" parent="1" vertex="1">
          <mxGeometry x="-405.5" y="-650.5" width="60" height="60" as="geometry" />
        </mxCell>
        <mxCell id="YFkLfKQitdEphh0zkhBd-74" value="" style="endArrow=none;html=1;rounded=0;" parent="1" source="YFkLfKQitdEphh0zkhBd-75" target="YFkLfKQitdEphh0zkhBd-71" edge="1">
          <mxGeometry width="50" height="50" relative="1" as="geometry">
            <mxPoint x="-280.5" y="-653" as="sourcePoint" />
            <mxPoint x="-180.5" y="-675.5" as="targetPoint" />
          </mxGeometry>
        </mxCell>
        <mxCell id="YFkLfKQitdEphh0zkhBd-75" value="&lt;font style=&quot;font-size: 10px;&quot;&gt;hizmet_adi&lt;/font&gt;" style="ellipse;whiteSpace=wrap;html=1;aspect=fixed;" parent="1" vertex="1">
          <mxGeometry x="-310.5" y="-663" width="60" height="60" as="geometry" />
        </mxCell>
        <mxCell id="YFkLfKQitdEphh0zkhBd-79" value="" style="endArrow=none;html=1;rounded=0;exitX=1;exitY=0.5;exitDx=0;exitDy=0;entryX=0;entryY=0.5;entryDx=0;entryDy=0;" parent="1" target="YFkLfKQitdEphh0zkhBd-78" edge="1">
          <mxGeometry width="50" height="50" relative="1" as="geometry">
            <mxPoint x="-370" y="-310.5" as="sourcePoint" />
            <mxPoint x="-114" y="-310" as="targetPoint" />
          </mxGeometry>
        </mxCell>
        <mxCell id="YFkLfKQitdEphh0zkhBd-78" value="yapabilir" style="rhombus;whiteSpace=wrap;html=1;" parent="1" vertex="1">
          <mxGeometry x="-280" y="-350" width="80" height="80" as="geometry" />
        </mxCell>
        <mxCell id="YFkLfKQitdEphh0zkhBd-80" value="olabilir" style="rhombus;whiteSpace=wrap;html=1;" parent="1" vertex="1">
          <mxGeometry x="-470" y="-152.5" width="80" height="80" as="geometry" />
        </mxCell>
        <mxCell id="YFkLfKQitdEphh0zkhBd-81" value="" style="endArrow=none;html=1;rounded=0;" parent="1" source="YFkLfKQitdEphh0zkhBd-82" target="YFkLfKQitdEphh0zkhBd-71" edge="1">
          <mxGeometry width="50" height="50" relative="1" as="geometry">
            <mxPoint x="-180" y="-654" as="sourcePoint" />
            <mxPoint x="-165.5" y="-566" as="targetPoint" />
          </mxGeometry>
        </mxCell>
        <mxCell id="YFkLfKQitdEphh0zkhBd-82" value="&lt;font style=&quot;font-size: 10px;&quot;&gt;ücreti&lt;/font&gt;" style="ellipse;whiteSpace=wrap;html=1;aspect=fixed;" parent="1" vertex="1">
          <mxGeometry x="-220" y="-644" width="60" height="60" as="geometry" />
        </mxCell>
        <mxCell id="YFkLfKQitdEphh0zkhBd-83" value="" style="endArrow=none;html=1;rounded=0;entryX=0.5;entryY=1;entryDx=0;entryDy=0;exitX=0.123;exitY=-0.002;exitDx=0;exitDy=0;exitPerimeter=0;" parent="1" source="yf1KIowhAy0mrgekBq7h-195" target="YFkLfKQitdEphh0zkhBd-71" edge="1">
          <mxGeometry width="50" height="50" relative="1" as="geometry">
            <mxPoint x="-120" y="-400" as="sourcePoint" />
            <mxPoint x="-256" y="-555" as="targetPoint" />
            <Array as="points">
              <mxPoint x="-100" y="-400" />
              <mxPoint x="-260" y="-400" />
            </Array>
          </mxGeometry>
        </mxCell>
        <mxCell id="YFkLfKQitdEphh0zkhBd-84" value="" style="endArrow=none;html=1;rounded=0;" parent="1" edge="1">
          <mxGeometry width="50" height="50" relative="1" as="geometry">
            <mxPoint x="-90" y="-350" as="sourcePoint" />
            <mxPoint x="-110" y="-350" as="targetPoint" />
          </mxGeometry>
        </mxCell>
        <mxCell id="YFkLfKQitdEphh0zkhBd-85" value="" style="endArrow=none;html=1;rounded=0;" parent="1" edge="1">
          <mxGeometry width="50" height="50" relative="1" as="geometry">
            <mxPoint x="-110" y="-360" as="sourcePoint" />
            <mxPoint x="-90" y="-360" as="targetPoint" />
          </mxGeometry>
        </mxCell>
        <mxCell id="YFkLfKQitdEphh0zkhBd-86" value="" style="endArrow=none;html=1;rounded=0;" parent="1" edge="1">
          <mxGeometry width="50" height="50" relative="1" as="geometry">
            <mxPoint x="-270" y="-500" as="sourcePoint" />
            <mxPoint x="-250" y="-500" as="targetPoint" />
          </mxGeometry>
        </mxCell>
        <mxCell id="YFkLfKQitdEphh0zkhBd-87" value="" style="endArrow=none;html=1;rounded=0;" parent="1" source="YFkLfKQitdEphh0zkhBd-88" target="yf1KIowhAy0mrgekBq7h-195" edge="1">
          <mxGeometry width="50" height="50" relative="1" as="geometry">
            <mxPoint x="-11.25" y="-215.5" as="sourcePoint" />
            <mxPoint x="61.25" y="-145" as="targetPoint" />
          </mxGeometry>
        </mxCell>
        <mxCell id="YFkLfKQitdEphh0zkhBd-88" value="&lt;font style=&quot;font-size: 10px;&quot;&gt;hizmet_id&lt;/font&gt;" style="ellipse;whiteSpace=wrap;html=1;aspect=fixed;fillColor=#d5e8d4;strokeColor=#82b366;" parent="1" vertex="1">
          <mxGeometry x="-30" y="-240" width="60" height="60" as="geometry" />
        </mxCell>
        <mxCell id="YFkLfKQitdEphh0zkhBd-89" value="" style="endArrow=none;html=1;rounded=0;exitX=1;exitY=0.5;exitDx=0;exitDy=0;" parent="1" target="YFkLfKQitdEphh0zkhBd-70" edge="1">
          <mxGeometry width="50" height="50" relative="1" as="geometry">
            <mxPoint x="380" y="-310.34" as="sourcePoint" />
            <mxPoint x="800" y="-310.0425" as="targetPoint" />
          </mxGeometry>
        </mxCell>
        <mxCell id="YFkLfKQitdEphh0zkhBd-70" value="olabilir" style="rhombus;whiteSpace=wrap;html=1;" parent="1" vertex="1">
          <mxGeometry x="460" y="-350" width="80" height="80" as="geometry" />
        </mxCell>
        <mxCell id="YFkLfKQitdEphh0zkhBd-90" value="&lt;font style=&quot;font-size: 9px;&quot;&gt;havalimani_id&lt;/font&gt;" style="ellipse;whiteSpace=wrap;html=1;aspect=fixed;fillColor=#d5e8d4;strokeColor=#82b366;" parent="1" vertex="1">
          <mxGeometry x="370" y="-444" width="60" height="60" as="geometry" />
        </mxCell>
        <mxCell id="YFkLfKQitdEphh0zkhBd-91" value="" style="endArrow=none;html=1;rounded=0;" parent="1" source="yf1KIowhAy0mrgekBq7h-90" target="YFkLfKQitdEphh0zkhBd-90" edge="1">
          <mxGeometry width="50" height="50" relative="1" as="geometry">
            <mxPoint x="421.89" y="-333.75" as="sourcePoint" />
            <mxPoint x="386.89" y="-363.75" as="targetPoint" />
          </mxGeometry>
        </mxCell>
        <mxCell id="YFkLfKQitdEphh0zkhBd-92" value="&lt;font style=&quot;font-size: 9px;&quot;&gt;sehir_id&lt;/font&gt;" style="ellipse;whiteSpace=wrap;html=1;aspect=fixed;" parent="1" vertex="1">
          <mxGeometry x="779" y="-351.25" width="60" height="60" as="geometry" />
        </mxCell>
        <mxCell id="YFkLfKQitdEphh0zkhBd-93" value="" style="endArrow=none;html=1;rounded=0;" parent="1" source="YFkLfKQitdEphh0zkhBd-62" target="YFkLfKQitdEphh0zkhBd-92" edge="1">
          <mxGeometry width="50" height="50" relative="1" as="geometry">
            <mxPoint x="730" y="-180" as="sourcePoint" />
            <mxPoint x="781.5739357166644" y="-211.25914857333123" as="targetPoint" />
          </mxGeometry>
        </mxCell>
        <mxCell id="YFkLfKQitdEphh0zkhBd-94" value="" style="endArrow=none;html=1;rounded=0;exitX=0.5;exitY=1;exitDx=0;exitDy=0;entryX=0.5;entryY=0;entryDx=0;entryDy=0;" parent="1" source="YFkLfKQitdEphh0zkhBd-62" target="YFkLfKQitdEphh0zkhBd-113" edge="1">
          <mxGeometry width="50" height="50" relative="1" as="geometry">
            <mxPoint x="665" y="-330" as="sourcePoint" />
            <mxPoint x="690" y="-200" as="targetPoint" />
          </mxGeometry>
        </mxCell>
        <mxCell id="YFkLfKQitdEphh0zkhBd-97" value="personel_turleri" style="rounded=0;whiteSpace=wrap;html=1;" parent="1" vertex="1">
          <mxGeometry x="129" y="214" width="120" height="60" as="geometry" />
        </mxCell>
        <mxCell id="YFkLfKQitdEphh0zkhBd-99" value="" style="endArrow=none;html=1;rounded=0;" parent="1" source="YFkLfKQitdEphh0zkhBd-97" target="YFkLfKQitdEphh0zkhBd-101" edge="1">
          <mxGeometry width="50" height="50" relative="1" as="geometry">
            <mxPoint x="180.5" y="221.5" as="sourcePoint" />
            <mxPoint x="180.5" y="201.5" as="targetPoint" />
          </mxGeometry>
        </mxCell>
        <mxCell id="YFkLfKQitdEphh0zkhBd-101" value="tur_adi" style="ellipse;whiteSpace=wrap;html=1;aspect=fixed;" parent="1" vertex="1">
          <mxGeometry x="49" y="251.5" width="60" height="60" as="geometry" />
        </mxCell>
        <mxCell id="YFkLfKQitdEphh0zkhBd-102" value="&lt;font style=&quot;font-size: 8px;&quot;&gt;personel_tur_id&lt;/font&gt;" style="ellipse;whiteSpace=wrap;html=1;aspect=fixed;fillColor=#f8cecc;strokeColor=#b85450;" parent="1" vertex="1">
          <mxGeometry x="64.5" y="146.5" width="60" height="60" as="geometry" />
        </mxCell>
        <mxCell id="YFkLfKQitdEphh0zkhBd-103" value="" style="endArrow=none;html=1;rounded=0;exitX=0.25;exitY=0;exitDx=0;exitDy=0;" parent="1" source="YFkLfKQitdEphh0zkhBd-97" target="YFkLfKQitdEphh0zkhBd-102" edge="1">
          <mxGeometry width="50" height="50" relative="1" as="geometry">
            <mxPoint x="95" y="226.5" as="sourcePoint" />
            <mxPoint x="145" y="176.5" as="targetPoint" />
          </mxGeometry>
        </mxCell>
        <mxCell id="YFkLfKQitdEphh0zkhBd-106" value="" style="endArrow=none;html=1;rounded=0;exitX=0.5;exitY=1;exitDx=0;exitDy=0;entryX=0.5;entryY=0;entryDx=0;entryDy=0;" parent="1" source="yf1KIowhAy0mrgekBq7h-149" target="YFkLfKQitdEphh0zkhBd-97" edge="1">
          <mxGeometry width="50" height="50" relative="1" as="geometry">
            <mxPoint x="188.57999999999993" y="126.5" as="sourcePoint" />
            <mxPoint x="188.57999999999993" y="206.5" as="targetPoint" />
          </mxGeometry>
        </mxCell>
        <mxCell id="YFkLfKQitdEphh0zkhBd-107" value="" style="endArrow=none;html=1;rounded=0;" parent="1" edge="1">
          <mxGeometry width="50" height="50" relative="1" as="geometry">
            <mxPoint x="179" y="63.72" as="sourcePoint" />
            <mxPoint x="199" y="63.72" as="targetPoint" />
          </mxGeometry>
        </mxCell>
        <mxCell id="YFkLfKQitdEphh0zkhBd-108" value="" style="endArrow=none;html=1;rounded=0;" parent="1" edge="1">
          <mxGeometry width="50" height="50" relative="1" as="geometry">
            <mxPoint x="179" y="73.72" as="sourcePoint" />
            <mxPoint x="199" y="73.72" as="targetPoint" />
          </mxGeometry>
        </mxCell>
        <mxCell id="YFkLfKQitdEphh0zkhBd-109" value="" style="endArrow=none;html=1;rounded=0;" parent="1" source="yf1KIowhAy0mrgekBq7h-149" target="YFkLfKQitdEphh0zkhBd-110" edge="1">
          <mxGeometry width="50" height="50" relative="1" as="geometry">
            <mxPoint x="166.89" y="76.5" as="sourcePoint" />
            <mxPoint x="212.24625078726456" y="109.39194269529116" as="targetPoint" />
          </mxGeometry>
        </mxCell>
        <mxCell id="YFkLfKQitdEphh0zkhBd-110" value="&lt;span style=&quot;font-size: 10px;&quot;&gt;tecrübe_yili&lt;br&gt;&lt;/span&gt;" style="ellipse;whiteSpace=wrap;html=1;aspect=fixed;" parent="1" vertex="1">
          <mxGeometry x="239" y="116.5" width="60" height="60" as="geometry" />
        </mxCell>
        <mxCell id="YFkLfKQitdEphh0zkhBd-111" value="" style="endArrow=none;html=1;rounded=0;" parent="1" edge="1">
          <mxGeometry width="50" height="50" relative="1" as="geometry">
            <mxPoint x="179" y="204" as="sourcePoint" />
            <mxPoint x="199" y="204" as="targetPoint" />
          </mxGeometry>
        </mxCell>
        <mxCell id="YFkLfKQitdEphh0zkhBd-112" value="olabilir" style="rhombus;whiteSpace=wrap;html=1;" parent="1" vertex="1">
          <mxGeometry x="149" y="96.5" width="80" height="80" as="geometry" />
        </mxCell>
        <mxCell id="YFkLfKQitdEphh0zkhBd-113" value="sehirler" style="rounded=0;whiteSpace=wrap;html=1;" parent="1" vertex="1">
          <mxGeometry x="630" y="-50" width="120" height="60" as="geometry" />
        </mxCell>
        <mxCell id="YFkLfKQitdEphh0zkhBd-116" value="&lt;font style=&quot;font-size: 9px;&quot;&gt;sehir_id&lt;/font&gt;" style="ellipse;whiteSpace=wrap;html=1;aspect=fixed;fillColor=#f8cecc;strokeColor=#b85450;" parent="1" vertex="1">
          <mxGeometry x="540" y="-110" width="60" height="60" as="geometry" />
        </mxCell>
        <mxCell id="YFkLfKQitdEphh0zkhBd-117" value="" style="endArrow=none;html=1;rounded=0;" parent="1" source="YFkLfKQitdEphh0zkhBd-113" target="YFkLfKQitdEphh0zkhBd-116" edge="1">
          <mxGeometry width="50" height="50" relative="1" as="geometry">
            <mxPoint x="655" y="-117.5" as="sourcePoint" />
            <mxPoint x="620" y="-147.5" as="targetPoint" />
          </mxGeometry>
        </mxCell>
        <mxCell id="YFkLfKQitdEphh0zkhBd-118" value="&lt;font style=&quot;font-size: 8px;&quot;&gt;sehir_adi&lt;/font&gt;" style="ellipse;whiteSpace=wrap;html=1;aspect=fixed;" parent="1" vertex="1">
          <mxGeometry x="611" y="-152.5" width="60" height="60" as="geometry" />
        </mxCell>
        <mxCell id="YFkLfKQitdEphh0zkhBd-119" value="" style="endArrow=none;html=1;rounded=0;" parent="1" source="YFkLfKQitdEphh0zkhBd-113" target="YFkLfKQitdEphh0zkhBd-118" edge="1">
          <mxGeometry width="50" height="50" relative="1" as="geometry">
            <mxPoint x="686" y="-117.5" as="sourcePoint" />
            <mxPoint x="720" y="-165" as="targetPoint" />
          </mxGeometry>
        </mxCell>
        <mxCell id="YFkLfKQitdEphh0zkhBd-120" value="&lt;font style=&quot;font-size: 9px;&quot;&gt;sehir_kodu&lt;/font&gt;" style="ellipse;whiteSpace=wrap;html=1;aspect=fixed;" parent="1" vertex="1">
          <mxGeometry x="730" y="-122.5" width="60" height="60" as="geometry" />
        </mxCell>
        <mxCell id="YFkLfKQitdEphh0zkhBd-121" value="" style="endArrow=none;html=1;rounded=0;" parent="1" source="YFkLfKQitdEphh0zkhBd-113" target="YFkLfKQitdEphh0zkhBd-120" edge="1">
          <mxGeometry width="50" height="50" relative="1" as="geometry">
            <mxPoint x="715" y="-117.5" as="sourcePoint" />
            <mxPoint x="766.5739357166644" y="-148.75914857333123" as="targetPoint" />
          </mxGeometry>
        </mxCell>
        <mxCell id="YsGVhSELg5LZBjCdEX_W-1" value="ucak_model" style="rounded=0;whiteSpace=wrap;html=1;" parent="1" vertex="1">
          <mxGeometry x="264" y="-790" width="120" height="60" as="geometry" />
        </mxCell>
        <mxCell id="YsGVhSELg5LZBjCdEX_W-2" value="" style="endArrow=none;html=1;rounded=0;" parent="1" source="YsGVhSELg5LZBjCdEX_W-1" target="YsGVhSELg5LZBjCdEX_W-3" edge="1">
          <mxGeometry width="50" height="50" relative="1" as="geometry">
            <mxPoint x="380" y="-740" as="sourcePoint" />
            <mxPoint x="117" y="-640" as="targetPoint" />
          </mxGeometry>
        </mxCell>
        <mxCell id="YsGVhSELg5LZBjCdEX_W-3" value="&lt;font style=&quot;font-size: 10px;&quot;&gt;koltuk_sayisi&lt;/font&gt;" style="ellipse;whiteSpace=wrap;html=1;aspect=fixed;" parent="1" vertex="1">
          <mxGeometry x="457" y="-844" width="60" height="60" as="geometry" />
        </mxCell>
        <mxCell id="YsGVhSELg5LZBjCdEX_W-4" value="" style="endArrow=none;html=1;rounded=0;" parent="1" source="YsGVhSELg5LZBjCdEX_W-1" target="YsGVhSELg5LZBjCdEX_W-5" edge="1">
          <mxGeometry width="50" height="50" relative="1" as="geometry">
            <mxPoint x="324" y="-760" as="sourcePoint" />
            <mxPoint y="-666" as="targetPoint" />
          </mxGeometry>
        </mxCell>
        <mxCell id="YsGVhSELg5LZBjCdEX_W-5" value="&lt;font style=&quot;font-size: 8px;&quot;&gt;ucak_model_id&lt;/font&gt;" style="ellipse;whiteSpace=wrap;html=1;aspect=fixed;fillColor=#f8cecc;strokeColor=#b85450;" parent="1" vertex="1">
          <mxGeometry x="340" y="-870" width="60" height="60" as="geometry" />
        </mxCell>
        <mxCell id="YsGVhSELg5LZBjCdEX_W-6" value="" style="endArrow=none;html=1;rounded=0;exitX=0.463;exitY=0.992;exitDx=0;exitDy=0;entryX=0.5;entryY=0;entryDx=0;entryDy=0;exitPerimeter=0;" parent="1" source="YsGVhSELg5LZBjCdEX_W-1" target="yf1KIowhAy0mrgekBq7h-16" edge="1">
          <mxGeometry width="50" height="50" relative="1" as="geometry">
            <mxPoint x="322" y="-710" as="sourcePoint" />
            <mxPoint x="322" y="-540" as="targetPoint" />
          </mxGeometry>
        </mxCell>
        <mxCell id="YsGVhSELg5LZBjCdEX_W-7" value="" style="endArrow=none;html=1;rounded=0;" parent="1" edge="1">
          <mxGeometry width="50" height="50" relative="1" as="geometry">
            <mxPoint x="310" y="-720" as="sourcePoint" />
            <mxPoint x="330" y="-720" as="targetPoint" />
          </mxGeometry>
        </mxCell>
        <mxCell id="YsGVhSELg5LZBjCdEX_W-8" value="" style="endArrow=none;html=1;rounded=0;" parent="1" edge="1">
          <mxGeometry width="50" height="50" relative="1" as="geometry">
            <mxPoint x="310" y="-550" as="sourcePoint" />
            <mxPoint x="330" y="-550" as="targetPoint" />
          </mxGeometry>
        </mxCell>
        <mxCell id="YsGVhSELg5LZBjCdEX_W-9" value="" style="endArrow=none;html=1;rounded=0;" parent="1" edge="1">
          <mxGeometry width="50" height="50" relative="1" as="geometry">
            <mxPoint x="310" y="-560" as="sourcePoint" />
            <mxPoint x="330" y="-560" as="targetPoint" />
          </mxGeometry>
        </mxCell>
        <mxCell id="YsGVhSELg5LZBjCdEX_W-10" value="" style="endArrow=none;html=1;rounded=0;" parent="1" source="yf1KIowhAy0mrgekBq7h-16" target="YsGVhSELg5LZBjCdEX_W-11" edge="1">
          <mxGeometry width="50" height="50" relative="1" as="geometry">
            <mxPoint x="241" y="-560" as="sourcePoint" />
            <mxPoint x="-100" y="-436" as="targetPoint" />
          </mxGeometry>
        </mxCell>
        <mxCell id="YsGVhSELg5LZBjCdEX_W-11" value="&lt;font style=&quot;font-size: 8px;&quot;&gt;ucak_model_id&lt;/font&gt;" style="ellipse;whiteSpace=wrap;html=1;aspect=fixed;fillColor=#d5e8d4;strokeColor=#82b366;" parent="1" vertex="1">
          <mxGeometry x="210" y="-620" width="60" height="60" as="geometry" />
        </mxCell>
        <mxCell id="YsGVhSELg5LZBjCdEX_W-12" value="" style="endArrow=none;html=1;rounded=0;" parent="1" source="YsGVhSELg5LZBjCdEX_W-1" target="YsGVhSELg5LZBjCdEX_W-13" edge="1">
          <mxGeometry width="50" height="50" relative="1" as="geometry">
            <mxPoint x="256.5" y="-790" as="sourcePoint" />
            <mxPoint x="-84.5" y="-666" as="targetPoint" />
          </mxGeometry>
        </mxCell>
        <mxCell id="YsGVhSELg5LZBjCdEX_W-13" value="&lt;font style=&quot;font-size: 8px;&quot;&gt;model_adi&lt;/font&gt;" style="ellipse;whiteSpace=wrap;html=1;aspect=fixed;" parent="1" vertex="1">
          <mxGeometry x="255.5" y="-870" width="60" height="60" as="geometry" />
        </mxCell>
        <mxCell id="YsGVhSELg5LZBjCdEX_W-14" value="olabilir" style="rhombus;whiteSpace=wrap;html=1;" parent="1" vertex="1">
          <mxGeometry x="280" y="-684" width="80" height="80" as="geometry" />
        </mxCell>
        <mxCell id="YsGVhSELg5LZBjCdEX_W-15" value="olabilir" style="rhombus;whiteSpace=wrap;html=1;" parent="1" vertex="1">
          <mxGeometry x="650" y="-230" width="80" height="80" as="geometry" />
        </mxCell>
        <mxCell id="YsGVhSELg5LZBjCdEX_W-16" value="&lt;font style=&quot;font-size: 9px;&quot;&gt;sehir_id&lt;/font&gt;" style="ellipse;whiteSpace=wrap;html=1;aspect=fixed;fillColor=#d5e8d4;strokeColor=#82b366;" parent="1" vertex="1">
          <mxGeometry x="551" y="-285" width="60" height="60" as="geometry" />
        </mxCell>
        <mxCell id="YsGVhSELg5LZBjCdEX_W-17" value="" style="endArrow=none;html=1;rounded=0;" parent="1" source="YFkLfKQitdEphh0zkhBd-62" target="YsGVhSELg5LZBjCdEX_W-16" edge="1">
          <mxGeometry width="50" height="50" relative="1" as="geometry">
            <mxPoint x="650" y="-215" as="sourcePoint" />
            <mxPoint x="631" y="-252.5" as="targetPoint" />
          </mxGeometry>
        </mxCell>
        <mxCell id="YsGVhSELg5LZBjCdEX_W-18" value="" style="endArrow=none;html=1;rounded=0;" parent="1" edge="1">
          <mxGeometry width="50" height="50" relative="1" as="geometry">
            <mxPoint x="700" y="-270" as="sourcePoint" />
            <mxPoint x="680" y="-270" as="targetPoint" />
          </mxGeometry>
        </mxCell>
        <mxCell id="YsGVhSELg5LZBjCdEX_W-19" value="" style="endArrow=none;html=1;rounded=0;" parent="1" edge="1">
          <mxGeometry width="50" height="50" relative="1" as="geometry">
            <mxPoint x="700" y="-260" as="sourcePoint" />
            <mxPoint x="680" y="-260" as="targetPoint" />
          </mxGeometry>
        </mxCell>
        <mxCell id="YsGVhSELg5LZBjCdEX_W-20" value="" style="endArrow=none;html=1;rounded=0;" parent="1" edge="1">
          <mxGeometry width="50" height="50" relative="1" as="geometry">
            <mxPoint x="700" y="-60" as="sourcePoint" />
            <mxPoint x="680" y="-60" as="targetPoint" />
          </mxGeometry>
        </mxCell>
        <mxCell id="Nr8PeJb5CGhjDiJv7hLS-1" value="sirketler" style="rounded=0;whiteSpace=wrap;html=1;" parent="1" vertex="1">
          <mxGeometry x="847" y="-540" width="120" height="60" as="geometry" />
        </mxCell>
        <mxCell id="Nr8PeJb5CGhjDiJv7hLS-2" value="" style="endArrow=none;html=1;rounded=0;" parent="1" source="Nr8PeJb5CGhjDiJv7hLS-1" target="Nr8PeJb5CGhjDiJv7hLS-3" edge="1">
          <mxGeometry width="50" height="50" relative="1" as="geometry">
            <mxPoint x="971" y="-540" as="sourcePoint" />
            <mxPoint x="704" y="-400" as="targetPoint" />
          </mxGeometry>
        </mxCell>
        <mxCell id="Nr8PeJb5CGhjDiJv7hLS-3" value="&lt;font style=&quot;font-size: 10px;&quot;&gt;sirket_adi&lt;/font&gt;" style="ellipse;whiteSpace=wrap;html=1;aspect=fixed;" parent="1" vertex="1">
          <mxGeometry x="997" y="-597.5" width="60" height="60" as="geometry" />
        </mxCell>
        <mxCell id="Nr8PeJb5CGhjDiJv7hLS-4" value="" style="endArrow=none;html=1;rounded=0;" parent="1" source="Nr8PeJb5CGhjDiJv7hLS-1" target="Nr8PeJb5CGhjDiJv7hLS-5" edge="1">
          <mxGeometry width="50" height="50" relative="1" as="geometry">
            <mxPoint x="928" y="-550" as="sourcePoint" />
            <mxPoint x="587" y="-426" as="targetPoint" />
          </mxGeometry>
        </mxCell>
        <mxCell id="Nr8PeJb5CGhjDiJv7hLS-5" value="&lt;font style=&quot;font-size: 8px;&quot;&gt;sirket_id&lt;/font&gt;" style="ellipse;whiteSpace=wrap;html=1;aspect=fixed;fillColor=#f8cecc;strokeColor=#b85450;" parent="1" vertex="1">
          <mxGeometry x="927" y="-630" width="60" height="60" as="geometry" />
        </mxCell>
        <mxCell id="Nr8PeJb5CGhjDiJv7hLS-6" value="" style="endArrow=none;html=1;rounded=0;" parent="1" source="Nr8PeJb5CGhjDiJv7hLS-1" target="Nr8PeJb5CGhjDiJv7hLS-7" edge="1">
          <mxGeometry width="50" height="50" relative="1" as="geometry">
            <mxPoint x="1041" y="-465" as="sourcePoint" />
            <mxPoint x="774" y="-325" as="targetPoint" />
          </mxGeometry>
        </mxCell>
        <mxCell id="Nr8PeJb5CGhjDiJv7hLS-7" value="&lt;font style=&quot;font-size: 9px;&quot;&gt;piyasa_degeri&lt;/font&gt;" style="ellipse;whiteSpace=wrap;html=1;aspect=fixed;" parent="1" vertex="1">
          <mxGeometry x="1006" y="-504" width="60" height="60" as="geometry" />
        </mxCell>
        <mxCell id="Nr8PeJb5CGhjDiJv7hLS-8" value="" style="endArrow=none;html=1;rounded=0;" parent="1" source="Nr8PeJb5CGhjDiJv7hLS-1" target="Nr8PeJb5CGhjDiJv7hLS-9" edge="1">
          <mxGeometry width="50" height="50" relative="1" as="geometry">
            <mxPoint x="998" y="-475" as="sourcePoint" />
            <mxPoint x="657" y="-351" as="targetPoint" />
          </mxGeometry>
        </mxCell>
        <mxCell id="Nr8PeJb5CGhjDiJv7hLS-9" value="&lt;font style=&quot;font-size: 8px;&quot;&gt;kurulus_tarihi&lt;/font&gt;" style="ellipse;whiteSpace=wrap;html=1;aspect=fixed;" parent="1" vertex="1">
          <mxGeometry x="827" y="-630" width="60" height="60" as="geometry" />
        </mxCell>
        <mxCell id="Nr8PeJb5CGhjDiJv7hLS-10" value="" style="endArrow=none;html=1;rounded=0;exitX=0;exitY=0.5;exitDx=0;exitDy=0;" parent="1" source="Nr8PeJb5CGhjDiJv7hLS-1" edge="1">
          <mxGeometry width="50" height="50" relative="1" as="geometry">
            <mxPoint x="470" y="-511" as="sourcePoint" />
            <mxPoint x="380" y="-510" as="targetPoint" />
          </mxGeometry>
        </mxCell>
        <mxCell id="Nr8PeJb5CGhjDiJv7hLS-11" value="" style="endArrow=none;html=1;rounded=0;" parent="1" edge="1">
          <mxGeometry width="50" height="50" relative="1" as="geometry">
            <mxPoint x="389.52" y="-520" as="sourcePoint" />
            <mxPoint x="389.52" y="-500" as="targetPoint" />
          </mxGeometry>
        </mxCell>
        <mxCell id="Nr8PeJb5CGhjDiJv7hLS-12" value="" style="endArrow=none;html=1;rounded=0;" parent="1" edge="1">
          <mxGeometry width="50" height="50" relative="1" as="geometry">
            <mxPoint x="399.52" y="-520" as="sourcePoint" />
            <mxPoint x="399.52" y="-500" as="targetPoint" />
          </mxGeometry>
        </mxCell>
        <mxCell id="Nr8PeJb5CGhjDiJv7hLS-13" value="" style="endArrow=none;html=1;rounded=0;" parent="1" edge="1">
          <mxGeometry width="50" height="50" relative="1" as="geometry">
            <mxPoint x="838" y="-520" as="sourcePoint" />
            <mxPoint x="838" y="-500" as="targetPoint" />
          </mxGeometry>
        </mxCell>
        <mxCell id="Nr8PeJb5CGhjDiJv7hLS-14" value="olabilir" style="rhombus;whiteSpace=wrap;html=1;" parent="1" vertex="1">
          <mxGeometry x="580" y="-550" width="80" height="80" as="geometry" />
        </mxCell>
        <mxCell id="Nr8PeJb5CGhjDiJv7hLS-15" value="" style="endArrow=none;html=1;rounded=0;" parent="1" source="yf1KIowhAy0mrgekBq7h-16" target="Nr8PeJb5CGhjDiJv7hLS-16" edge="1">
          <mxGeometry width="50" height="50" relative="1" as="geometry">
            <mxPoint x="476.89" y="-510" as="sourcePoint" />
            <mxPoint x="86.88999999999999" y="-406" as="targetPoint" />
          </mxGeometry>
        </mxCell>
        <mxCell id="Nr8PeJb5CGhjDiJv7hLS-16" value="&lt;font style=&quot;font-size: 12px;&quot;&gt;sirket_id&lt;/font&gt;" style="ellipse;whiteSpace=wrap;html=1;aspect=fixed;fillColor=#d5e8d4;strokeColor=#82b366;" parent="1" vertex="1">
          <mxGeometry x="380" y="-604" width="60" height="60" as="geometry" />
        </mxCell>
        <mxCell id="3KrqZo9mc0DbvktBL2L4-1" value="" style="endArrow=none;html=1;rounded=0;entryX=1;entryY=0.5;entryDx=0;entryDy=0;" parent="1" target="yf1KIowhAy0mrgekBq7h-149" edge="1">
          <mxGeometry width="50" height="50" relative="1" as="geometry">
            <mxPoint x="910" y="100" as="sourcePoint" />
            <mxPoint x="249" y="244" as="targetPoint" />
            <Array as="points">
              <mxPoint x="369" y="100" />
              <mxPoint x="369" y="24" />
            </Array>
          </mxGeometry>
        </mxCell>
        <mxCell id="3KrqZo9mc0DbvktBL2L4-2" value="olabilir" style="rhombus;whiteSpace=wrap;html=1;" parent="1" vertex="1">
          <mxGeometry x="867" y="66.5" width="80" height="80" as="geometry" />
        </mxCell>
        <mxCell id="3KrqZo9mc0DbvktBL2L4-3" value="" style="endArrow=none;html=1;rounded=0;exitX=0.52;exitY=0.994;exitDx=0;exitDy=0;exitPerimeter=0;entryX=0.5;entryY=0;entryDx=0;entryDy=0;" parent="1" source="Nr8PeJb5CGhjDiJv7hLS-1" edge="1" target="3KrqZo9mc0DbvktBL2L4-2">
          <mxGeometry width="50" height="50" relative="1" as="geometry">
            <mxPoint x="910" y="-450" as="sourcePoint" />
            <mxPoint x="910" y="100" as="targetPoint" />
          </mxGeometry>
        </mxCell>
        <mxCell id="3KrqZo9mc0DbvktBL2L4-4" value="" style="endArrow=none;html=1;rounded=0;" parent="1" source="yf1KIowhAy0mrgekBq7h-149" target="3KrqZo9mc0DbvktBL2L4-5" edge="1">
          <mxGeometry width="50" height="50" relative="1" as="geometry">
            <mxPoint x="263" y="-28.5" as="sourcePoint" />
            <mxPoint x="131.5" y="36.5" as="targetPoint" />
          </mxGeometry>
        </mxCell>
        <mxCell id="3KrqZo9mc0DbvktBL2L4-5" value="&lt;span style=&quot;font-size: 10px;&quot;&gt;sirket_id&lt;/span&gt;" style="ellipse;whiteSpace=wrap;html=1;aspect=fixed;fillColor=#d5e8d4;strokeColor=#82b366;" parent="1" vertex="1">
          <mxGeometry x="339" y="-78.5" width="60" height="60" as="geometry" />
        </mxCell>
        <mxCell id="fK0RaquuzvIDn93_uhwZ-1" value="meslek" style="rounded=0;whiteSpace=wrap;html=1;" parent="1" vertex="1">
          <mxGeometry x="-860" y="-340" width="120" height="60" as="geometry" />
        </mxCell>
        <mxCell id="fK0RaquuzvIDn93_uhwZ-2" value="" style="endArrow=none;html=1;rounded=0;" parent="1" source="fK0RaquuzvIDn93_uhwZ-12" target="YFkLfKQitdEphh0zkhBd-16" edge="1">
          <mxGeometry width="50" height="50" relative="1" as="geometry">
            <mxPoint x="-680" y="-310.25" as="sourcePoint" />
            <mxPoint x="-590" y="-309.75" as="targetPoint" />
          </mxGeometry>
        </mxCell>
        <mxCell id="fK0RaquuzvIDn93_uhwZ-3" value="" style="endArrow=none;html=1;rounded=0;" parent="1" edge="1">
          <mxGeometry width="50" height="50" relative="1" as="geometry">
            <mxPoint x="-500.24" y="-300" as="sourcePoint" />
            <mxPoint x="-499.76" y="-320" as="targetPoint" />
          </mxGeometry>
        </mxCell>
        <mxCell id="fK0RaquuzvIDn93_uhwZ-4" value="" style="endArrow=none;html=1;rounded=0;" parent="1" edge="1">
          <mxGeometry width="50" height="50" relative="1" as="geometry">
            <mxPoint x="-730" y="-300" as="sourcePoint" />
            <mxPoint x="-730" y="-320" as="targetPoint" />
          </mxGeometry>
        </mxCell>
        <mxCell id="fK0RaquuzvIDn93_uhwZ-5" value="&lt;span style=&quot;font-size: 11px;&quot;&gt;meslek_id&lt;/span&gt;" style="ellipse;whiteSpace=wrap;html=1;aspect=fixed;fillColor=#d5e8d4;strokeColor=#82b366;" parent="1" vertex="1">
          <mxGeometry x="-670" y="-262.5" width="60" height="60" as="geometry" />
        </mxCell>
        <mxCell id="fK0RaquuzvIDn93_uhwZ-6" value="" style="endArrow=none;html=1;rounded=0;" parent="1" source="YFkLfKQitdEphh0zkhBd-16" target="fK0RaquuzvIDn93_uhwZ-5" edge="1">
          <mxGeometry width="50" height="50" relative="1" as="geometry">
            <mxPoint x="-620" y="-340" as="sourcePoint" />
            <mxPoint x="-653.5" y="-215.5" as="targetPoint" />
          </mxGeometry>
        </mxCell>
        <mxCell id="fK0RaquuzvIDn93_uhwZ-7" value="" style="endArrow=none;html=1;rounded=0;" parent="1" edge="1">
          <mxGeometry width="50" height="50" relative="1" as="geometry">
            <mxPoint x="-510" y="-300" as="sourcePoint" />
            <mxPoint x="-510" y="-320" as="targetPoint" />
          </mxGeometry>
        </mxCell>
        <mxCell id="fK0RaquuzvIDn93_uhwZ-8" value="" style="endArrow=none;html=1;rounded=0;" parent="1" source="fK0RaquuzvIDn93_uhwZ-9" target="fK0RaquuzvIDn93_uhwZ-1" edge="1">
          <mxGeometry width="50" height="50" relative="1" as="geometry">
            <mxPoint x="-760" y="-267.5" as="sourcePoint" />
            <mxPoint x="-732.0338983050847" y="-342.5" as="targetPoint" />
          </mxGeometry>
        </mxCell>
        <mxCell id="fK0RaquuzvIDn93_uhwZ-9" value="&lt;font style=&quot;font-size: 10px;&quot;&gt;meslek_adi&lt;/font&gt;" style="ellipse;whiteSpace=wrap;html=1;aspect=fixed;" parent="1" vertex="1">
          <mxGeometry x="-860" y="-250" width="60" height="60" as="geometry" />
        </mxCell>
        <mxCell id="fK0RaquuzvIDn93_uhwZ-10" value="&lt;span style=&quot;font-size: 11px;&quot;&gt;meslek_id&lt;/span&gt;" style="ellipse;whiteSpace=wrap;html=1;aspect=fixed;fillColor=#f8cecc;strokeColor=#b85450;" parent="1" vertex="1">
          <mxGeometry x="-930" y="-250" width="60" height="60" as="geometry" />
        </mxCell>
        <mxCell id="fK0RaquuzvIDn93_uhwZ-11" value="" style="endArrow=none;html=1;rounded=0;" parent="1" source="fK0RaquuzvIDn93_uhwZ-1" target="fK0RaquuzvIDn93_uhwZ-10" edge="1">
          <mxGeometry width="50" height="50" relative="1" as="geometry">
            <mxPoint x="-748.8124877088824" y="-342.5" as="sourcePoint" />
            <mxPoint x="-823.5" y="-220.5" as="targetPoint" />
          </mxGeometry>
        </mxCell>
        <mxCell id="fK0RaquuzvIDn93_uhwZ-13" value="" style="endArrow=none;html=1;rounded=0;" parent="1" source="fK0RaquuzvIDn93_uhwZ-1" target="fK0RaquuzvIDn93_uhwZ-12" edge="1">
          <mxGeometry width="50" height="50" relative="1" as="geometry">
            <mxPoint x="-780" y="-310" as="sourcePoint" />
            <mxPoint x="-490" y="-310" as="targetPoint" />
          </mxGeometry>
        </mxCell>
        <mxCell id="fK0RaquuzvIDn93_uhwZ-12" value="olabilir" style="rhombus;whiteSpace=wrap;html=1;" parent="1" vertex="1">
          <mxGeometry x="-680" y="-351.25" width="80" height="80" as="geometry" />
        </mxCell>
        <mxCell id="fK0RaquuzvIDn93_uhwZ-14" value="" style="endArrow=none;html=1;rounded=0;" parent="1" source="fK0RaquuzvIDn93_uhwZ-15" target="YFkLfKQitdEphh0zkhBd-16" edge="1">
          <mxGeometry width="50" height="50" relative="1" as="geometry">
            <mxPoint x="-430" y="-480" as="sourcePoint" />
            <mxPoint x="-430.34" y="-340" as="targetPoint" />
            <Array as="points">
              <mxPoint x="-560" y="-440" />
              <mxPoint x="-430" y="-440" />
            </Array>
          </mxGeometry>
        </mxCell>
        <mxCell id="fK0RaquuzvIDn93_uhwZ-15" value="log_kaydi" style="rounded=0;whiteSpace=wrap;html=1;" parent="1" vertex="1">
          <mxGeometry x="-620" y="-560" width="120" height="60" as="geometry" />
        </mxCell>
        <mxCell id="fK0RaquuzvIDn93_uhwZ-18" value="" style="endArrow=none;html=1;rounded=0;" parent="1" source="fK0RaquuzvIDn93_uhwZ-19" target="fK0RaquuzvIDn93_uhwZ-15" edge="1">
          <mxGeometry width="50" height="50" relative="1" as="geometry">
            <mxPoint x="-558" y="-448.25" as="sourcePoint" />
            <mxPoint x="-540" y="-558.75" as="targetPoint" />
          </mxGeometry>
        </mxCell>
        <mxCell id="fK0RaquuzvIDn93_uhwZ-19" value="&lt;font style=&quot;font-size: 10px;&quot;&gt;log_kaydi_id&lt;/font&gt;" style="ellipse;whiteSpace=wrap;html=1;aspect=fixed;fillColor=#f8cecc;strokeColor=#b85450;" parent="1" vertex="1">
          <mxGeometry x="-627" y="-641.25" width="60" height="60" as="geometry" />
        </mxCell>
        <mxCell id="fK0RaquuzvIDn93_uhwZ-20" value="" style="endArrow=none;html=1;rounded=0;" parent="1" source="fK0RaquuzvIDn93_uhwZ-21" target="fK0RaquuzvIDn93_uhwZ-15" edge="1">
          <mxGeometry width="50" height="50" relative="1" as="geometry">
            <mxPoint x="-481" y="-457" as="sourcePoint" />
            <mxPoint x="-497" y="-568.75" as="targetPoint" />
          </mxGeometry>
        </mxCell>
        <mxCell id="fK0RaquuzvIDn93_uhwZ-21" value="&lt;font style=&quot;font-size: 10px;&quot;&gt;giris_tarihi&lt;br&gt;&lt;/font&gt;" style="ellipse;whiteSpace=wrap;html=1;aspect=fixed;" parent="1" vertex="1">
          <mxGeometry x="-550" y="-650" width="60" height="60" as="geometry" />
        </mxCell>
        <mxCell id="fK0RaquuzvIDn93_uhwZ-22" value="" style="endArrow=none;html=1;rounded=0;" parent="1" source="fK0RaquuzvIDn93_uhwZ-23" target="fK0RaquuzvIDn93_uhwZ-15" edge="1">
          <mxGeometry width="50" height="50" relative="1" as="geometry">
            <mxPoint x="-404" y="-377" as="sourcePoint" />
            <mxPoint x="-470" y="-480" as="targetPoint" />
          </mxGeometry>
        </mxCell>
        <mxCell id="fK0RaquuzvIDn93_uhwZ-23" value="&lt;font style=&quot;font-size: 10px;&quot;&gt;cikis_tarihi&lt;br&gt;&lt;/font&gt;" style="ellipse;whiteSpace=wrap;html=1;aspect=fixed;" parent="1" vertex="1">
          <mxGeometry x="-490" y="-614" width="60" height="60" as="geometry" />
        </mxCell>
        <mxCell id="fK0RaquuzvIDn93_uhwZ-24" value="" style="endArrow=none;html=1;rounded=0;" parent="1" source="fK0RaquuzvIDn93_uhwZ-25" target="fK0RaquuzvIDn93_uhwZ-15" edge="1">
          <mxGeometry width="50" height="50" relative="1" as="geometry">
            <mxPoint x="-388" y="-307" as="sourcePoint" />
            <mxPoint x="-488" y="-490" as="targetPoint" />
          </mxGeometry>
        </mxCell>
        <mxCell id="fK0RaquuzvIDn93_uhwZ-25" value="&lt;font style=&quot;font-size: 10px;&quot;&gt;ip_adres&lt;br&gt;&lt;/font&gt;" style="ellipse;whiteSpace=wrap;html=1;aspect=fixed;" parent="1" vertex="1">
          <mxGeometry x="-474" y="-544" width="60" height="60" as="geometry" />
        </mxCell>
        <mxCell id="fK0RaquuzvIDn93_uhwZ-26" value="" style="endArrow=none;html=1;rounded=0;" parent="1" source="fK0RaquuzvIDn93_uhwZ-27" target="fK0RaquuzvIDn93_uhwZ-15" edge="1">
          <mxGeometry width="50" height="50" relative="1" as="geometry">
            <mxPoint x="-654" y="-285" as="sourcePoint" />
            <mxPoint x="-766" y="-500" as="targetPoint" />
          </mxGeometry>
        </mxCell>
        <mxCell id="fK0RaquuzvIDn93_uhwZ-27" value="&lt;font style=&quot;font-size: 10px;&quot;&gt;tarayıici_adi&lt;br&gt;&lt;/font&gt;" style="ellipse;whiteSpace=wrap;html=1;aspect=fixed;" parent="1" vertex="1">
          <mxGeometry x="-710" y="-510" width="60" height="60" as="geometry" />
        </mxCell>
        <mxCell id="fK0RaquuzvIDn93_uhwZ-28" value="" style="endArrow=none;html=1;rounded=0;" parent="1" source="fK0RaquuzvIDn93_uhwZ-29" target="fK0RaquuzvIDn93_uhwZ-15" edge="1">
          <mxGeometry width="50" height="50" relative="1" as="geometry">
            <mxPoint x="-684" y="-359" as="sourcePoint" />
            <mxPoint x="-650" y="-579" as="targetPoint" />
          </mxGeometry>
        </mxCell>
        <mxCell id="fK0RaquuzvIDn93_uhwZ-29" value="&lt;font style=&quot;font-size: 10px;&quot;&gt;sayfa_adi&lt;br&gt;&lt;/font&gt;" style="ellipse;whiteSpace=wrap;html=1;aspect=fixed;" parent="1" vertex="1">
          <mxGeometry x="-720" y="-590.5" width="60" height="60" as="geometry" />
        </mxCell>
        <mxCell id="fK0RaquuzvIDn93_uhwZ-30" value="" style="endArrow=none;html=1;rounded=0;" parent="1" source="fK0RaquuzvIDn93_uhwZ-31" target="fK0RaquuzvIDn93_uhwZ-15" edge="1">
          <mxGeometry width="50" height="50" relative="1" as="geometry">
            <mxPoint x="-585" y="-279.5" as="sourcePoint" />
            <mxPoint x="-567" y="-390" as="targetPoint" />
          </mxGeometry>
        </mxCell>
        <mxCell id="fK0RaquuzvIDn93_uhwZ-31" value="kullanici_id" style="ellipse;whiteSpace=wrap;html=1;aspect=fixed;fillColor=#d5e8d4;strokeColor=#82b366;" parent="1" vertex="1">
          <mxGeometry x="-654" y="-472.5" width="60" height="60" as="geometry" />
        </mxCell>
        <mxCell id="fK0RaquuzvIDn93_uhwZ-32" value="Bu ER diyagramı 15 adet tabloya ve 1 ara tabloya sahiptir." style="text;html=1;align=center;verticalAlign=middle;resizable=0;points=[];autosize=1;strokeColor=#b85450;fillColor=#f8cecc;" parent="1" vertex="1">
          <mxGeometry x="1430" y="-320" width="330" height="30" as="geometry" />
        </mxCell>
        <mxCell id="fK0RaquuzvIDn93_uhwZ-34" value="" style="endArrow=none;html=1;rounded=0;" parent="1" edge="1">
          <mxGeometry width="50" height="50" relative="1" as="geometry">
            <mxPoint x="920" y="-470" as="sourcePoint" />
            <mxPoint x="900" y="-470" as="targetPoint" />
          </mxGeometry>
        </mxCell>
        <mxCell id="fK0RaquuzvIDn93_uhwZ-35" value="" style="endArrow=none;html=1;rounded=0;" parent="1" edge="1">
          <mxGeometry width="50" height="50" relative="1" as="geometry">
            <mxPoint x="920" y="-460" as="sourcePoint" />
            <mxPoint x="900" y="-460" as="targetPoint" />
          </mxGeometry>
        </mxCell>
      </root>
    </mxGraphModel>
  </diagram>
</mxfile>
